<svg xmlns="http://www.w3.org/2000/svg" width="555.011" height="244.794" viewBox="0 0 555.011 244.794">
  <g id="footer-shadow-text" transform="translate(-523.172 -9497.972)">
    <path id="Path_30510" data-name="Path 30510" d="M59.263,30.3A21.326,21.326,0,0,1,81.373,6.237,26.793,26.793,0,1,0,81.1,49.064h0A21.447,21.447,0,0,1,59.263,30.3Z" transform="translate(740.882 9685.399)" fill="#ff9d7b" stroke="#ff9d7b" stroke-linecap="round" stroke-linejoin="round" stroke-miterlimit="10" stroke-width="6"/>
    <g id="Group_14052" data-name="Group 14052" transform="translate(3.461 -1774.996)">
      <text id="C" transform="matrix(0.727, -0.687, 0.687, 0.727, 592.235, 11459.551)" fill="#ef4e9e" font-size="92" font-family="Cubano-Regular, Cubano"><tspan x="0" y="0">C</tspan></text>
      <text id="A" transform="matrix(0.89, -0.456, 0.456, 0.89, 634.934, 11421.442)" fill="#ef4e9e" font-size="93" font-family="Cubano-Regular, Cubano"><tspan x="0" y="0">A</tspan></text>
      <text id="M" transform="matrix(0.975, -0.221, 0.221, 0.975, 687.982, 11394.621)" fill="#ef4e9e" font-size="94" font-family="Cubano-Regular, Cubano"><tspan x="0" y="0">M</tspan></text>
      <text id="P" transform="matrix(1, -0.014, 0.014, 1, 766.773, 11379.387)" fill="#ef4e9e" font-size="95" font-family="Cubano-Regular, Cubano"><tspan x="0" y="0">P</tspan></text>
      <text id="_" data-name=" " transform="translate(825.853 11375.635) rotate(6.86)" fill="#ef4e9e" font-size="91" font-family="Cubano-Regular, Cubano"><tspan x="0" y="0"> </tspan></text>
      <text id="F" transform="matrix(0.966, 0.259, -0.259, 0.966, 857.947, 11382.815)" fill="#ef4e9e" font-size="95" font-family="Cubano-Regular, Cubano"><tspan x="0" y="0">F</tspan></text>
      <text id="F-2" data-name="F" transform="matrix(0.892, 0.453, -0.453, 0.892, 912.571, 11397.497)" fill="#ef4e9e" font-size="95" font-family="Cubano-Regular, Cubano"><tspan x="0" y="0">F</tspan></text>
      <text id="F-3" data-name="F" transform="matrix(0.738, 0.675, -0.675, 0.738, 962.487, 11422.631)" fill="#ef4e9e" font-size="95" font-family="Cubano-Regular, Cubano"><tspan x="0" y="0">F</tspan></text>
      <text id="C-2" data-name="C" transform="matrix(0.727, -0.687, 0.687, 0.727, 588.482, 11456.424)" fill="#f79bc5" stroke="#ef4e9e" stroke-width="2" font-size="96" font-family="Cubano-Regular, Cubano"><tspan x="0" y="0">C</tspan></text>
      <text id="A-2" data-name="A" transform="matrix(0.89, -0.456, 0.456, 0.89, 631.781, 11417.673)" fill="#f79bc5" stroke="#ef4e9e" stroke-width="2" font-size="97" font-family="Cubano-Regular, Cubano"><tspan x="0" y="0">A</tspan></text>
      <text id="M-2" data-name="M" transform="matrix(0.975, -0.221, 0.221, 0.975, 685.238, 11388.385)" fill="#f79bc5" stroke="#ef4e9e" stroke-width="2" font-size="96" font-family="Cubano-Regular, Cubano"><tspan x="0" y="0">M</tspan></text>
      <text id="P-2" data-name="P" transform="matrix(1, -0.014, 0.014, 1, 765.957, 11371.756)" fill="#f79bc5" stroke="#ef4e9e" stroke-width="2" font-size="96" font-family="Cubano-Regular, Cubano"><tspan x="0" y="0">P</tspan></text>
      <text id="_2" data-name=" " transform="translate(826.374 11370.004) rotate(6.86)" fill="#f79bc5" stroke="#ef4e9e" stroke-width="2" font-size="94" font-family="Cubano-Regular, Cubano"><tspan x="0" y="0"> </tspan></text>
      <text id="F-4" data-name="F" transform="matrix(0.966, 0.259, -0.259, 0.966, 859.408, 11376.275)" fill="#f79bc5" stroke="#ef4e9e" stroke-width="2" font-size="97" font-family="Cubano-Regular, Cubano"><tspan x="0" y="0">F</tspan></text>
      <text id="F-5" data-name="F" transform="matrix(0.892, 0.453, -0.453, 0.892, 915.396, 11391.33)" fill="#f79bc5" stroke="#ef4e9e" stroke-width="2" font-size="97" font-family="Cubano-Regular, Cubano"><tspan x="0" y="0">F</tspan></text>
      <text id="F-6" data-name="F" transform="matrix(0.738, 0.675, -0.675, 0.738, 966.571, 11417.11)" fill="#f79bc5" stroke="#ef4e9e" stroke-width="2" font-size="97" font-family="Cubano-Regular, Cubano"><tspan x="0" y="0">F</tspan></text>
    </g>
    <path id="Path_2596" data-name="Path 2596" d="M10.606,19.463a.789.789,0,0,1,1.1.341l4.656,10.057c.693,1.5,2.2,5.584-3.3,8.308-4.937,2.448-7.336-.276-8.335-1.9a.669.669,0,0,1,.19-.891c.93-.771,1.4-1.154,2.338-1.915a.878.878,0,0,1,1.3.207,1.764,1.764,0,0,0,2.6.65c1.745-.865,1.353-1.971.514-3.7C9.97,27.11,9.118,25.353,7.414,21.841a.79.79,0,0,1,.436-1.071c1.1-.529,1.651-.79,2.757-1.307" transform="translate(674.605 9639.639)" fill="#6f69f2"/>
    <path id="Path_2597" data-name="Path 2597" d="M16.773,17.215c.509-.216.86-.091,1.053.369C19.34,21.193,20.1,23,21.611,26.608c.744,1.772,1.317,2.8,3.106,2.063s1.475-1.863.762-3.649c-1.455-3.634-2.182-5.452-3.636-9.085a.709.709,0,0,1,.49-1c1.146-.455,1.721-.679,2.872-1.119q.769-.295,1.036.407l3.939,10.386c.583,1.541,1.794,5.727-3.836,8.033s-7.72-1.515-8.384-3.023L13.475,19.456a.709.709,0,0,1,.458-1.018c1.133-.5,1.7-.742,2.84-1.223" transform="translate(677.103 9638.03)" fill="#6f69f2"/>
    <path id="Path_2598" data-name="Path 2598" d="M31.238,11.644a.948.948,0,0,1,1.091.24c2.462,2.683,3.673,4.038,6.049,6.773.168.182.355.071.28-.167-.973-3.075-1.459-4.612-2.43-7.688a.706.706,0,0,1,.558-.961c1.169-.366,1.755-.545,2.929-.9.523-.157.857.005,1,.484,1.816,6.128,2.723,9.191,4.539,15.318a.681.681,0,0,1-.52.937c-1.437.431-2.154.652-3.586,1.105a.887.887,0,0,1-1.027-.275c-2.342-2.741-3.534-4.1-5.96-6.792-.172-.179-.357-.063-.278.173,1.032,3.055,1.549,4.583,2.581,7.639a.682.682,0,0,1-.486.956c-1.085.37-1.626.559-2.706.942a.693.693,0,0,1-.977-.446c-2.155-6.017-3.233-9.024-5.389-15.041a.707.707,0,0,1,.524-.982c1.52-.54,2.282-.8,3.809-1.319" transform="translate(680.939 9636.65)" fill="#6f69f2"/>
    <path id="Path_2599" data-name="Path 2599" d="M53.032,5.378c.532-.12.851.066.96.553.243,1.091.364,1.637.607,2.73a.7.7,0,0,1-.621.906c-2.528.571-3.79.873-6.306,1.507a.7.7,0,0,0-.594.924c.08.31.118.464.2.774a.708.708,0,0,0,.959.529c1.6-.4,2.4-.6,4-.975a.682.682,0,0,1,.945.549c.253,1.089.379,1.633.631,2.723a.689.689,0,0,1-.592.907c-1.576.371-2.361.563-3.931.959a.688.688,0,0,0-.574.919c.08.31.118.464.2.774a.7.7,0,0,0,.938.535c2.429-.613,3.647-.9,6.088-1.455a.671.671,0,0,1,.919.56c.243,1.092.365,1.639.608,2.73a.669.669,0,0,1-.581.9c-4.163.941-6.237,1.456-10.363,2.581a.693.693,0,0,1-.937-.519l-4.247-15.4a.705.705,0,0,1,.591-.939c4.423-1.205,6.647-1.758,11.107-2.766" transform="translate(685.059 9635.64)" fill="#6f69f2"/>
    <path id="Path_2600" data-name="Path 2600" d="M75.463,14.838a.67.67,0,0,1,.852.655c.127,1.11.19,1.667.317,2.777a.668.668,0,0,1-.668.831c-4.281.5-6.417.8-10.677,1.495a.69.69,0,0,1-.873-.616c-.141-.847-.211-1.271-.352-2.118-.939-5.664,6.463-8.416,6.625-10.428.059-.763-.449-1.353-1.482-1.211a1.853,1.853,0,0,0-1.8,1.946c-.013.5-.236.765-.775.745-1.232-.068-1.849-.1-3.086-.152a.744.744,0,0,1-.815-.7c-.158-1.771.337-5.324,5.883-6.09,6.03-.833,6.739,3.618,6.81,4.35.458,4.783-6.137,6.493-6.669,9.118-.026.18.066.269.27.239,2.569-.371,3.857-.538,6.433-.842" transform="translate(691.165 9634.649)" fill="#6f69f2"/>
    <path id="Path_2601" data-name="Path 2601" d="M88.329,13.836a.67.67,0,0,1,.8.711c.053,1.118.078,1.676.13,2.794a.668.668,0,0,1-.722.784c-4.3.212-6.449.365-10.737.769a.691.691,0,0,1-.828-.673c-.082-.855-.123-1.283-.207-2.137-.554-5.715,7-7.96,7.3-9.955.111-.757-.356-1.38-1.394-1.308a1.852,1.852,0,0,0-1.92,1.82c-.045.5-.285.747-.821.69-1.223-.15-1.835-.222-3.062-.359a.745.745,0,0,1-.765-.756c-.039-1.777.694-5.29,6.27-5.679,6.062-.422,6.471,4.066,6.491,4.8.134,4.8-6.552,6.062-7.258,8.645-.039.179.046.271.252.256,2.584-.2,3.879-.276,6.467-.4" transform="translate(694.984 9634.261)" fill="#6f69f2"/>
    <path id="Path_2602" data-name="Path 2602" d="M90.131,6.8A.689.689,0,0,1,90.9,6.03c4.822-.108,7.234-.1,12.056.018.526.013.783.27.767.77-.031,1.118-.048,1.677-.078,2.794a.687.687,0,0,1-.8.729c-4.74-.12-7.112-.123-11.851-.018a.7.7,0,0,1-.8-.73l-.071-2.8" transform="translate(698.983 9635.813)" fill="#6f69f2"/>
    <path id="Path_2603" data-name="Path 2603" d="M116.024,14.63a.671.671,0,0,1,.7.82c-.111,1.113-.164,1.669-.275,2.782a.668.668,0,0,1-.828.672c-4.288-.409-6.437-.565-10.736-.783a.689.689,0,0,1-.721-.785c.041-.858.06-1.288.1-2.145.275-5.734,8.075-6.87,8.654-8.8.218-.734-.154-1.418-1.191-1.495a1.851,1.851,0,0,0-2.162,1.524.658.658,0,0,1-.912.565c-1.187-.325-1.782-.484-2.976-.8a.746.746,0,0,1-.649-.857C105.243,3.566,106.47.2,112.044.613c6.061.454,5.822,4.954,5.736,5.685-.558,4.773-7.357,5.057-8.428,7.512-.063.171.008.276.213.29,2.586.177,3.877.284,6.459.529" transform="translate(702.982 9634.281)" fill="#6f69f2"/>
    <path id="Path_2604" data-name="Path 2604" d="M131.534,14.264a.688.688,0,0,1-.9.607l-.307-.053a.686.686,0,0,0-.891.61c-.293,1.773-.441,2.66-.734,4.434a.679.679,0,0,1-.873.616c-1.121-.182-1.681-.27-2.8-.438a.689.689,0,0,1-.641-.852l.655-4.447a.673.673,0,0,0-.661-.852c-2.6-.374-3.9-.544-6.505-.849a.7.7,0,0,1-.686-.834c.158-1.389.238-2.083.4-3.472,0-.024.1-.213.215-.478,1.1-1.592,1.653-2.386,2.78-3.967a.916.916,0,0,1,.982-.481c1.175.15,1.762.229,2.935.392.587.081.884.477.547.933-1.128,1.534-1.685,2.306-2.785,3.852-.076.166-.036.271.174.3,1.024.138,1.536.208,2.56.356a.694.694,0,0,0,.892-.627c.361-2.449.541-3.674.9-6.125a.7.7,0,0,1,.916-.621c1.2.181,1.806.275,3.009.47q.806.131.682.871c-.4,2.443-.607,3.664-1.011,6.107a.706.706,0,0,0,.659.87l.312.053a.68.68,0,0,1,.653.873c-.19,1.1-.287,1.653-.477,2.754" transform="translate(706.698 9634.758)" fill="#6f69f2"/>
    <path id="Path_2605" data-name="Path 2605" d="M149.885,21.1a.673.673,0,0,1,.544.932c-.306,1.076-.459,1.614-.763,2.69a.672.672,0,0,1-.941.513c-4.181-1.173-6.28-1.712-10.5-2.695a.69.69,0,0,1-.574-.9c.193-.838.289-1.256.481-2.093,1.286-5.6,9.212-5.317,10.128-7.115.347-.682.1-1.423-.916-1.685a1.861,1.861,0,0,0-2.411,1.113.661.661,0,0,1-1,.393c-1.118-.532-1.68-.8-2.807-1.315a.747.747,0,0,1-.49-.96c.528-1.7,2.338-4.8,7.787-3.388,5.923,1.532,4.894,5.921,4.679,6.625-1.4,4.6-8.188,3.657-9.682,5.882-.093.157-.041.272.159.324,2.529.637,3.791.974,6.307,1.68" transform="translate(712.525 9635.895)" fill="#6f69f2"/>
    <path id="Path_2606" data-name="Path 2606" d="M155.852,28.009c-5.737-1.915-4.372-7.605-3.42-10.733.982-3.224,2.906-8.807,9.234-6.7,6.379,2.128,4.494,7.83,3.377,10.9s-3.454,8.439-9.191,6.526m.92-9.369c-.778,2.4-1.483,4.653.438,5.295,1.824.608,2.714-1.586,3.532-3.971s1.563-4.646-.434-5.311c-1.9-.632-2.758,1.59-3.535,3.988" transform="translate(716.502 9637)" fill="#6f69f2"/>
    <path id="Path_2607" data-name="Path 2607" d="M175.33,30.32a.677.677,0,0,1,.416,1c-.452,1.023-.679,1.534-1.132,2.556a.675.675,0,0,1-1.011.373c-4.022-1.767-6.049-2.6-10.129-4.181a.7.7,0,0,1-.451-.975c.307-.8.46-1.2.769-2.006,2.052-5.362,9.939-3.949,11.1-5.6.441-.627.293-1.4-.685-1.8a1.875,1.875,0,0,0-2.564.757.668.668,0,0,1-1.058.245c-1.046-.688-1.57-1.029-2.626-1.705a.748.748,0,0,1-.357-1.022c.76-1.606,2.992-4.422,8.248-2.241,5.716,2.372,4.087,6.577,3.776,7.244-2.028,4.355-8.693,2.444-10.493,4.435-.114.143-.078.265.116.343,2.442,1,3.659,1.511,6.08,2.575" transform="translate(719.749 9638.372)" fill="#6f69f2"/>
    <path id="Path_2608" data-name="Path 2608" d="M187.351,36.154a.68.68,0,0,1,.352,1.032L186.4,39.657a.678.678,0,0,1-1.04.3c-3.924-2.059-5.9-3.039-9.893-4.908a.7.7,0,0,1-.388-1.006c.361-.779.542-1.168.9-1.948,2.417-5.207,10.24-3.228,11.519-4.794.483-.594.387-1.373-.569-1.849a1.886,1.886,0,0,0-2.624.571.672.672,0,0,1-1.078.17c-1-.762-1.507-1.141-2.521-1.892a.75.75,0,0,1-.292-1.046c.87-1.55,3.3-4.2,8.429-1.645,5.581,2.781,3.668,6.866,3.312,7.51-2.325,4.2-8.892,1.813-10.831,3.672-.125.134-.1.258.093.351,2.386,1.171,3.573,1.773,5.935,3.012" transform="translate(723.179 9639.974)" fill="#6f69f2"/>
    <path id="Path_30511" data-name="Path 30511" d="M.388-18.914a.576.576,0,0,1,.63-.77H3.793a.691.691,0,0,1,.77.606L5.892-9.352c.047.233.233.233.28,0l1.563-9.726a.7.7,0,0,1,.77-.606h2.006a.7.7,0,0,1,.77.606l1.563,9.726c.047.233.233.233.28,0l1.329-9.726a.691.691,0,0,1,.77-.606H18a.576.576,0,0,1,.63.77L15.758-3.964a.7.7,0,0,1-.77.606H11.7a.719.719,0,0,1-.77-.606L9.648-9.7c-.047-.233-.233-.233-.28,0L8.085-3.964a.719.719,0,0,1-.77.606H4.026a.7.7,0,0,1-.77-.606ZM34.114-4.15c0,.513-.233.793-.7.793H30.8a.628.628,0,0,1-.7-.7V-6.086a.618.618,0,0,0-.7-.7H27.4a.628.628,0,0,0-.7.7v2.029a.618.618,0,0,1-.7.7H23.385c-.443,0-.7-.28-.7-.793V-14.04c0-2.939.466-6.064,5.714-6.064s5.714,3.125,5.714,6.064ZM30.1-14.04c0-1.12-.163-1.679-1.7-1.679s-1.7.56-1.7,1.679V-11.5a.638.638,0,0,0,.7.7H29.4a.645.645,0,0,0,.7-.723Zm12.408-.933a.618.618,0,0,0-.7-.7H38.546a.638.638,0,0,1-.7-.7v-2.612a.628.628,0,0,1,.7-.7H50.488a.618.618,0,0,1,.7.7v2.612a.628.628,0,0,1-.7.7H47.222a.628.628,0,0,0-.7.7V-4.057a.628.628,0,0,1-.7.7H43.211a.638.638,0,0,1-.7-.7ZM66-19.684a.618.618,0,0,1,.7.7v2.612a.628.628,0,0,1-.7.7H60.354a.628.628,0,0,0-.7.7v.746a.638.638,0,0,0,.7.7h3.615a.618.618,0,0,1,.7.7v2.612a.628.628,0,0,1-.7.7H60.354a.628.628,0,0,0-.7.7v.746a.638.638,0,0,0,.7.7H66a.618.618,0,0,1,.7.7v2.612a.618.618,0,0,1-.7.7H56.2a.638.638,0,0,1-.7-.7V-18.984a.628.628,0,0,1,.7-.7ZM81.229-9.212a.247.247,0,0,1,.07-.3c1.236-.886,1.773-2.4,1.773-4.571,0-3.825-1.679-5.6-5.831-5.6H72.132a.7.7,0,0,0-.723.723V-4.08a.7.7,0,0,0,.723.723h2.612a.7.7,0,0,0,.723-.723V-7.766a.7.7,0,0,1,.723-.723h.933a.238.238,0,0,1,.187.117l2.426,4.688a.569.569,0,0,0,.536.327h2.659a.826.826,0,0,0,.77-1.259ZM77.38-15.672c1.12,0,1.679.14,1.679,1.586S78.5-12.5,77.38-12.5h-1.19a.7.7,0,0,1-.723-.723v-1.726a.7.7,0,0,1,.723-.723Zm16.3-4.012a.715.715,0,0,1,.746.63l1.656,6.787c.047.233.233.233.28,0l1.656-6.787a.715.715,0,0,1,.746-.63H103.6a.618.618,0,0,1,.7.7V-4.057a.628.628,0,0,1-.7.7h-2.612a.638.638,0,0,1-.7-.7v-9.19a.129.129,0,0,0-.257-.023L97.765-3.964a.72.72,0,0,1-.77.606H95.456a.719.719,0,0,1-.77-.606L92.424-13.27a.129.129,0,0,0-.257.023v9.19a.628.628,0,0,1-.7.7H88.856a.628.628,0,0,1-.7-.7V-18.984a.618.618,0,0,1,.7-.7Zm19.126,0a.618.618,0,0,1,.7.7V-4.057a.628.628,0,0,1-.7.7h-2.566a.638.638,0,0,1-.7-.7V-18.984a.628.628,0,0,1,.7-.7Zm9.26,0a.618.618,0,0,1,.7.7V-8.069a.638.638,0,0,0,.7.7h5.2a.618.618,0,0,1,.7.7v2.612a.618.618,0,0,1-.7.7h-9.213a.638.638,0,0,1-.7-.7V-18.984a.628.628,0,0,1,.7-.7Zm14.974,0a.618.618,0,0,1,.7.7V-8.069a.638.638,0,0,0,.7.7h5.2a.618.618,0,0,1,.7.7v2.612a.618.618,0,0,1-.7.7H134.43a.638.638,0,0,1-.7-.7V-18.984a.628.628,0,0,1,.7-.7ZM152.25-7.369a.618.618,0,0,1,.7.7v2.612c0,1.7-.746,3.055-2.542,3.242-.3.023-.42-.257-.21-.513a2.777,2.777,0,0,0,.746-1.8.22.22,0,0,0-.233-.233h-1.073a.638.638,0,0,1-.7-.7V-6.669a.628.628,0,0,1,.7-.7Zm19.405-12.315a.805.805,0,0,1,.816.536l3.172,7.767c.093.21.28.163.28-.07v-7.534a.628.628,0,0,1,.7-.7h2.612a.618.618,0,0,1,.7.7V-4.057a.628.628,0,0,1-.7.7h-3.429a.805.805,0,0,1-.816-.536l-3.172-7.767c-.093-.21-.28-.163-.28.07v7.534a.628.628,0,0,1-.7.7h-2.612a.638.638,0,0,1-.7-.7V-18.984a.628.628,0,0,1,.7-.7Zm16.7,0a.76.76,0,0,1,.793.536l1.726,4.338c.093.21.233.21.327,0l1.726-4.338a.76.76,0,0,1,.793-.536h3.335c.536,0,.77.327.536.816l-4.175,9.33a.592.592,0,0,0-.047.28v5.2a.628.628,0,0,1-.7.7H189.4a.638.638,0,0,1-.7-.7v-5.2a.591.591,0,0,0-.047-.28l-4.2-9.33c-.233-.49,0-.816.536-.816Z" transform="translate(558.687 9728.517)" fill="#ef4e9e"/>
    <path id="Path_30512" data-name="Path 30512" d="M4.945-14.973a.618.618,0,0,0-.7-.7H.98a.638.638,0,0,1-.7-.7v-2.612a.628.628,0,0,1,.7-.7H12.922a.618.618,0,0,1,.7.7v2.612a.628.628,0,0,1-.7.7H9.656a.628.628,0,0,0-.7.7V-4.057a.628.628,0,0,1-.7.7H5.644a.638.638,0,0,1-.7-.7Zm16.3-4.711a.638.638,0,0,1,.7.7v5.831a.638.638,0,0,0,.7.7h2.239a.628.628,0,0,0,.7-.7v-5.831a.638.638,0,0,1,.7-.7H28.9a.618.618,0,0,1,.7.7V-4.057a.628.628,0,0,1-.7.7H26.286a.638.638,0,0,1-.7-.7V-7.742a.618.618,0,0,0-.7-.7H22.648a.628.628,0,0,0-.7.7v3.685a.628.628,0,0,1-.7.7H18.636a.638.638,0,0,1-.7-.7V-18.984a.618.618,0,0,1,.7-.7Zm24.094,0a.618.618,0,0,1,.7.7v2.612a.628.628,0,0,1-.7.7H39.7a.628.628,0,0,0-.7.7v.746a.638.638,0,0,0,.7.7h3.615a.618.618,0,0,1,.7.7v2.612a.628.628,0,0,1-.7.7H39.7a.628.628,0,0,0-.7.7v.746a.638.638,0,0,0,.7.7h5.644a.618.618,0,0,1,.7.7v2.612a.618.618,0,0,1-.7.7h-9.8a.638.638,0,0,1-.7-.7V-18.984a.628.628,0,0,1,.7-.7Zm18.636,0a.638.638,0,0,1,.7.7v5.831a.638.638,0,0,0,.7.7h2.239a.628.628,0,0,0,.7-.7v-5.831a.638.638,0,0,1,.7-.7h2.612a.618.618,0,0,1,.7.7V-4.057a.628.628,0,0,1-.7.7H69.016a.638.638,0,0,1-.7-.7V-7.742a.618.618,0,0,0-.7-.7H65.377a.628.628,0,0,0-.7.7v3.685a.628.628,0,0,1-.7.7H61.365a.638.638,0,0,1-.7-.7V-18.984a.618.618,0,0,1,.7-.7ZM88.888-4.15c0,.513-.233.793-.7.793H85.576a.628.628,0,0,1-.7-.7V-6.086a.618.618,0,0,0-.7-.7H82.17a.628.628,0,0,0-.7.7v2.029a.618.618,0,0,1-.7.7H78.159c-.443,0-.7-.28-.7-.793V-14.04c0-2.939.466-6.064,5.714-6.064s5.714,3.125,5.714,6.064ZM84.876-14.04c0-1.12-.163-1.679-1.7-1.679s-1.7.56-1.7,1.679V-11.5a.638.638,0,0,0,.7.7h2.006a.645.645,0,0,0,.7-.723Zm14.671-5.644a.715.715,0,0,1,.746.63l1.656,6.787c.047.233.233.233.28,0l1.656-6.787a.715.715,0,0,1,.746-.63h4.828a.618.618,0,0,1,.7.7V-4.057a.628.628,0,0,1-.7.7h-2.612a.638.638,0,0,1-.7-.7v-9.19a.129.129,0,0,0-.257-.023l-2.262,9.306a.72.72,0,0,1-.77.606h-1.539a.719.719,0,0,1-.77-.606L98.287-13.27a.129.129,0,0,0-.257.023v9.19a.628.628,0,0,1-.7.7H94.718a.628.628,0,0,1-.7-.7V-18.984a.618.618,0,0,1,.7-.7Zm16.56,0a.645.645,0,0,0-.7.723v14.9a.638.638,0,0,0,.7.7h2.612a.618.618,0,0,0,.7-.7V-7.789a.628.628,0,0,1,.7-.7h1.12c4.152,0,5.831-1.773,5.831-5.6s-1.679-5.6-5.831-5.6Zm4.012,7.184a.638.638,0,0,1-.7-.7v-1.773a.628.628,0,0,1,.7-.7h1.259c1.12,0,1.679.14,1.679,1.586s-.56,1.586-1.679,1.586Zm15.044-2.472a.618.618,0,0,0-.7-.7H131.2a.638.638,0,0,1-.7-.7v-2.612a.628.628,0,0,1,.7-.7h11.942a.618.618,0,0,1,.7.7v2.612a.628.628,0,0,1-.7.7h-3.265a.628.628,0,0,0-.7.7V-4.057a.628.628,0,0,1-.7.7h-2.612a.638.638,0,0,1-.7-.7Zm24.234.536c0-1.539-.327-5.668-5.854-5.668s-5.854,4.128-5.854,5.668v5.831c0,1.539.327,5.668,5.854,5.668S159.4-7.066,159.4-8.605Zm-4.012,4.595c0,1.8-.117,2.892-1.843,2.892s-1.843-1.1-1.843-2.892V-13.2c0-1.8.117-2.892,1.843-2.892s1.843,1.1,1.843,2.892Zm13.155-9.843a.805.805,0,0,1,.816.536l3.172,7.767c.093.21.28.163.28-.07v-7.534a.628.628,0,0,1,.7-.7h2.612a.618.618,0,0,1,.7.7V-4.057a.628.628,0,0,1-.7.7H172.69a.805.805,0,0,1-.816-.536L168.7-11.661c-.093-.21-.28-.163-.28.07v7.534a.628.628,0,0,1-.7.7H165.11a.638.638,0,0,1-.7-.7V-18.984a.628.628,0,0,1,.7-.7Zm24.327,5.2a.685.685,0,0,0,.606-.77c-.14-1.679-1.259-4.8-6.064-4.8-5.225,0-5.644,4.128-5.621,4.828,0,5.365,7.02,4.921,7.464,6.9.14.63-.7,1.306-1.843,1.306a1.913,1.913,0,0,1-2.052-1.773c-.047-.49-.3-.7-.77-.606l-2.636.583a.685.685,0,0,0-.606.77c.117,1.819,1.166,5.038,6.064,5.038,5.528,0,6.321-4.128,6.321-4.828,0-5.365-7.37-5.318-7.7-7.137-.093-.536.466-1.073,1.376-1.073a1.894,1.894,0,0,1,2.029,1.563c.07.466.3.676.77.583Z" transform="translate(838.175 9728.517)" fill="#ef4e9e"/>
  </g>
</svg>
