<svg xmlns="http://www.w3.org/2000/svg" width="1648.223" height="57.009" viewBox="0 0 1648.223 57.009">
  <path id="from-prattan" d="M0,57.009V0C16.863,0,16.863,14.121,33.723,14.121S50.587,0,67.447,0s16.863,14.121,33.727,14.121S118.034,0,134.9,0s16.863,14.121,33.723,14.121C184.938,14.121,185.47.9,200.758.047V0c.272,0,.536,0,.795.013.263-.008.525-.013.8-.013,16.592,0,16.855,13.67,32.929,14.108C251.354,13.67,251.618,0,268.206,0c16.863,0,16.863,14.121,33.723,14.121S318.793,0,335.654,0s16.863,14.121,33.728,14.121c16.788,0,16.863-13.993,33.5-14.116V0A1.013,1.013,0,0,1,403,0a.945.945,0,0,1,.111,0c16.826,0,16.868,14.053,33.614,14.121C453.469,14.053,453.511,0,470.337,0,487.2,0,487.2,14.121,504.06,14.121S520.919,0,537.785,0s16.863,14.121,33.722,14.121c16.788,0,16.859-13.993,33.5-14.116V0a1,1,0,0,1,.113,0,1.048,1.048,0,0,1,.115,0C622.062,0,622.1,14.057,638.85,14.121,655.6,14.057,655.633,0,672.459,0c16.863,0,16.863,14.121,33.723,14.121S723.041,0,739.906,0s16.863,14.121,33.727,14.121c16.785,0,16.857-13.993,33.5-14.116V0a1.057,1.057,0,0,1,.117,0,.9.9,0,0,1,.109,0c16.826,0,16.865,14.057,33.613,14.121C857.721,14.057,857.758,0,874.58,0c16.863,0,16.863,14.121,33.725,14.121S925.168,0,942.031,0s16.861,14.121,33.725,14.121C992.072,14.121,992.6.9,1007.9.047V0c.268,0,.529,0,.795.013.258-.008.525-.013.793-.013,16.592,0,16.859,13.67,32.934,14.108C1058.488,13.67,1058.752,0,1075.346,0c16.861,0,16.861,14.121,33.721,14.121S1125.928,0,1142.791,0s16.861,14.121,33.727,14.121c16.783,0,16.861-13.993,33.5-14.116V0a.987.987,0,0,1,.113,0,.97.97,0,0,1,.111,0c16.828,0,16.869,14.053,33.617,14.121C1260.6,14.053,1260.643,0,1277.463,0c16.867,0,16.867,14.121,33.725,14.121S1328.053,0,1344.916,0s16.859,14.121,33.719,14.121c16.793,0,16.867-13.993,33.512-14.116V0a.953.953,0,0,1,.109,0,.97.97,0,0,1,.111,0c16.826,0,16.867,14.057,33.615,14.121C1462.725,14.057,1462.764,0,1479.6,0c16.859,0,16.859,14.121,33.723,14.121S1530.174,0,1547.039,0s16.861,14.121,33.725,14.121S1597.635,0,1614.49,0s16.869,14.121,33.732,14.121V57.009" transform="translate(1648.223 57.009) rotate(180)" fill="#fff"/>
</svg>
