<svg xmlns="http://www.w3.org/2000/svg" width="359.406" height="68.901" viewBox="0 0 359.406 68.901">
  <g id="goingclear" transform="translate(-620 -9162.001)">
    <path id="Path_14575" data-name="Path 14575" d="M3191.086,155.881l-2.169,8.384-8.528,2.283a19.511,19.511,0,0,1-3.421,27.047,18.687,18.687,0,0,1-22.969.146l-8.616,2.307-2.157,8.341A33.462,33.462,0,0,0,3191,200.875a34.925,34.925,0,0,0,.088-44.994" transform="translate(-2511.464 9018.111)" fill="#3ad15c"/>
    <path id="Path_14576" data-name="Path 14576" d="M3125.889,138.795a18.744,18.744,0,0,1,24.82-1.755l8.56-2.292,2.171-8.392a33.477,33.477,0,0,0-47.779,3.535,34.91,34.91,0,0,0-.07,44.985l2.168-8.385,8.53-2.284a19.555,19.555,0,0,1,1.6-25.413" transform="translate(-2485.413 9044.035)" fill="#0179e6"/>
    <path id="Path_30507" data-name="Path 30507" d="M19.352-25.757c-10.646,0-18.1,7.613-18.1,18.415S8.757,11.021,19.4,11.021A17.462,17.462,0,0,0,36.537-1.427V-9.606H17.679v6.481h11a8.54,8.54,0,0,1-8.618,6.378c-6.235,0-9.987-3.909-9.987-10.6,0-6.275,3.7-10.288,9.277-10.288,3.244,0,5.678,1.286,7,3.7h9.581C34.053-21.333,27.869-25.757,19.352-25.757Zm48.16,22.17c0-9.1-6.388-14.763-14.7-14.763-8.263,0-14.7,5.658-14.7,14.763s6.286,14.763,14.6,14.763S67.512,5.517,67.512-3.587Zm-20.582,0c0-4.887,2.738-7.15,5.881-7.15,3.042,0,5.881,2.263,5.881,7.15,0,4.835-2.89,7.15-5.982,7.15C49.566,3.562,46.93,1.248,46.93-3.587ZM70.6,10.764h8.669v-28.7H70.6Zm4.36-31.686a4.8,4.8,0,0,0,5.12-4.732,4.811,4.811,0,0,0-5.12-4.784,4.826,4.826,0,0,0-5.171,4.784C69.793-23.031,71.872-20.922,74.964-20.922Zm28.592,31.686h8.618V-6.005c0-7.716-4.36-12.242-10.9-12.242a10.319,10.319,0,0,0-8.567,4.115v-3.806H84.038v28.7h8.669V-4.822c0-3.909,2.129-6.07,5.424-6.07s5.424,2.16,5.424,6.07Zm11.406-14.4c0,9.053,5.526,14.814,12.471,14.814a9.966,9.966,0,0,0,8.719-4.527v4.064c0,4.835-2.585,6.584-5.881,6.584-2.991,0-5.12-1.389-5.678-3.549h-8.567c.76,6.841,6.235,11.162,14.651,11.162,9.784,0,14.144-6.533,14.144-14.2V-17.939h-8.669v4.064c-1.521-2.572-4.563-4.475-8.719-4.475C120.488-18.35,114.962-12.692,114.962-3.639Zm21.19.051c0,4.578-2.89,7.1-6.185,7.1-3.244,0-6.185-2.572-6.185-7.15s2.94-7.047,6.185-7.047C133.263-10.686,136.152-8.165,136.152-3.587Z" transform="translate(699.129 9203.963)" fill="#3ad15c"/>
    <path id="Path_30508" data-name="Path 30508" d="M111.34-8.162c0,10.8,7.4,18.363,17.9,18.363,8.466,0,14.854-4.784,16.881-12.6h-9.531a7.829,7.829,0,0,1-7.452,4.629c-5.323,0-8.973-4.012-8.973-10.39s3.65-10.39,8.973-10.39a7.829,7.829,0,0,1,7.452,4.629h9.531c-2.028-7.819-8.415-12.654-16.881-12.654C118.741-26.577,111.34-18.964,111.34-8.162ZM149.919,9.944h8.669V-28.12h-8.669Zm25.9-22.067c2.89,0,5.323,1.8,5.323,4.938H170.3A5.388,5.388,0,0,1,175.824-12.123ZM189.359.428h-9.226a4.605,4.605,0,0,1-4.512,2.778c-2.788,0-5.069-1.749-5.374-5.5h19.619a22.548,22.548,0,0,0,.152-2.572c0-8.744-5.83-14.3-14.093-14.3-8.415,0-14.3,5.658-14.3,14.763s5.982,14.763,14.3,14.763C182.971,10.356,187.99,6.035,189.359.428Zm1.977-4.887c0,9.053,5.526,14.814,12.42,14.814a9.962,9.962,0,0,0,8.77-4.475V9.944H221.2v-28.7h-8.669v4.064a9.808,9.808,0,0,0-8.719-4.475C196.862-19.17,191.336-13.512,191.336-4.459Zm21.19.051c0,4.578-2.89,7.1-6.185,7.1-3.244,0-6.185-2.572-6.185-7.15s2.94-7.047,6.185-7.047C209.637-11.506,212.526-8.985,212.526-4.407Zm22.1,1.029c0-4.938,2.383-6.378,6.489-6.378H243.5v-9.31a10.515,10.515,0,0,0-8.872,5.092v-4.784H225.96v28.7h8.669Z" transform="translate(735.905 9204.782)" fill="#0179e6"/>
  </g>
</svg>
