<svg xmlns="http://www.w3.org/2000/svg" xmlns:xlink="http://www.w3.org/1999/xlink" width="228.57" height="19.8" viewBox="0 0 228.57 19.8">
  <defs>
    <clipPath id="clip-path">
      <rect id="Rectangle_10" data-name="Rectangle 10" width="228.57" height="19.8" transform="translate(0 0)" fill="#3d3d4d"/>
    </clipPath>
  </defs>
  <g id="logo" transform="translate(0 0)">
    <path id="Path_32" data-name="Path 32" d="M0,.32V19.481H4.285V12.295H8.41V8.251H4.285V4.392h4.63V.32Z" fill="#3d3d4d"/>
    <path id="Path_33" data-name="Path 33" d="M10.319.32V19.481h9.368v-4.1H14.631V11.817h4.444V7.825H14.631V4.258h4.976V.32Z" fill="#3d3d4d"/>
    <path id="Path_34" data-name="Path 34" d="M30.513.32l-2.9,7.451L24.791.32h-3.7V19.481h4.045V10.14L24.951,8.3l.027.159,2.288,5.748h.878L30.38,8.383l.08-.292-.293,1.836v9.554h4.072V.32Z" fill="#3d3d4d"/>
    <path id="Path_35" data-name="Path 35" d="M41.63,9.1l.187-2.4L42,9.1l.772,4.631h-1.89ZM39.661.32,35.643,19.481h4.338l.345-2.1H43.36l.347,2.1h4.364L43.972.32Z" fill="#3d3d4d"/>
    <path id="Path_36" data-name="Path 36" d="M49.476.32V19.481H58.5V15.037H54V.32Z" fill="#3d3d4d"/>
    <path id="Path_37" data-name="Path 37" d="M59.9.32V19.481h9.368v-4.1H64.212V11.817h4.445V7.825H64.212V4.258h4.977V.32Z" fill="#3d3d4d"/>
    <path id="Path_38" data-name="Path 38" d="M75.761.32V19.481h4.285V12.295h4.125V8.251H80.046V4.392h4.63V.32Z" fill="#3d3d4d"/>
    <g id="Group_23" data-name="Group 23">
      <g id="Group_22" data-name="Group 22" clip-path="url(#clip-path)">
        <path id="Path_39" data-name="Path 39" d="M85.959,14.052v-8.3c0-3.912,2.235-5.722,5.668-5.722,3.353,0,5.669,1.81,5.669,5.722v8.3a6.845,6.845,0,0,1-.719,3.273c-.958,1.677-2.714,2.449-4.95,2.449-3.459,0-5.668-1.7-5.668-5.722m6.786-.346V5.962c0-1.544-.266-2.076-1.118-2.076s-1.118.586-1.118,2.076v7.744c0,1.49.267,2.049,1.118,2.049s1.118-.505,1.118-2.049" fill="#3d3d4d"/>
        <path id="Path_40" data-name="Path 40" d="M99.4,14.052V.32h4.364V13.786c0,1.357.293,1.756,1.065,1.756.825,0,1.038-.372,1.038-1.756V.32h4.364V14.052c0,4.019-2.022,5.722-5.4,5.722-3.54,0-5.429-1.7-5.429-5.722" fill="#3d3d4d"/>
        <path id="Path_41" data-name="Path 41" d="M112.343,19.481V.32h3.912l3.38,9.367.293,1.065-.08-1.73V.32h3.939V19.481h-3.833l-3.459-9.368-.32-1.091.107,1.89v8.569Z" fill="#3d3d4d"/>
        <path id="Path_42" data-name="Path 42" d="M131.269.319a6.89,6.89,0,0,1,2.954.559c1.7.718,2.741,2.262,2.741,4.976v8.064a6.109,6.109,0,0,1-.745,3.247c-1.011,1.65-2.767,2.315-5,2.315h-5.322V.319Zm-1.011,15.329H131c.932,0,1.411-.585,1.411-2.156V6.174c0-1.6-.506-2.129-1.411-2.129h-.745Z" fill="#3d3d4d"/>
        <path id="Path_43" data-name="Path 43" d="M139.072,19.481V.32h9.288V4.258h-4.977V7.825h4.445v3.992h-4.445v3.566h5.057v4.1Z" fill="#3d3d4d"/>
        <path id="Path_44" data-name="Path 44" d="M154.7,19.481h-4.152V.319h5.429c3.593,0,5.11,1.224,5.11,4.711V7.478c0,1.7-.559,2.635-1.7,3.087,1.251.453,1.57,1.384,1.57,3.087v4.471a1.759,1.759,0,0,0,.479,1.358h-4.444a1.835,1.835,0,0,1-.373-1.358v-4.2c0-1.038-.266-1.33-1.277-1.33H154.7Zm0-10.752h.985c.9,0,1.171-.319,1.171-1.091V5.189c0-.9-.266-1.224-1.171-1.224H154.7Z" fill="#3d3d4d"/>
        <path id="Path_45" data-name="Path 45" d="M163.54,14.823V12.108h4.5v2.635c0,.745.187,1.2,1.012,1.2.745,0,.9-.453.9-1.2v-1.2c0-1.251-1.278-1.943-2.662-2.715a13.1,13.1,0,0,1-1.676-1.118A4.581,4.581,0,0,1,163.7,5.8V4.817C163.7,1.49,165.563,0,169.022,0c3.38,0,5.136,1.543,5.136,4.5V6.573H169.9V4.79c0-.932-.186-1.224-.9-1.224-.666,0-.9.372-.9,1.224v.639c0,1.064,1.2,1.623,2.555,2.368a15.885,15.885,0,0,1,1.729,1.118,4.665,4.665,0,0,1,2,4.018V14.9c0,3.247-1.729,4.9-5.429,4.9-3.992,0-5.4-1.65-5.4-4.977" fill="#3d3d4d"/>
        <path id="Path_46" data-name="Path 46" d="M191.009,14.052V.32h4.364V13.786c0,1.357.293,1.756,1.065,1.756.825,0,1.038-.372,1.038-1.756V.32h4.364V14.052c0,4.019-2.022,5.722-5.4,5.722-3.54,0-5.429-1.7-5.429-5.722" fill="#3d3d4d"/>
        <path id="Path_47" data-name="Path 47" d="M203.948,19.481V.32h3.912l3.38,9.367.293,1.065-.08-1.73V.32h3.939V19.481h-3.833L208.1,10.113l-.32-1.091.107,1.89v8.569Z" fill="#3d3d4d"/>
        <path id="Path_48" data-name="Path 48" d="M222.875.319a6.889,6.889,0,0,1,2.954.559c1.7.718,2.741,2.262,2.741,4.976v8.064a6.11,6.11,0,0,1-.745,3.247c-1.011,1.65-2.767,2.315-5,2.315H217.5V.319Zm-1.011,15.329h.745c.932,0,1.411-.585,1.411-2.156V6.174c0-1.6-.506-2.129-1.411-2.129h-.745Z" fill="#3d3d4d"/>
        <path id="Path_49" data-name="Path 49" d="M185.1,19.481h-4.285V.32h8.916V4.391H185.1V8.25h4.125v4.045H185.1Z" fill="#3d3d4d"/>
      </g>
    </g>
  </g>
</svg>
