<svg xmlns="http://www.w3.org/2000/svg" width="88" height="88" viewBox="0 0 88 88">
  <g id="marker" transform="translate(-961 -9547.146)">
    <circle id="Ellipse_9" data-name="Ellipse 9" cx="44" cy="44" r="44" transform="translate(961 9547.146)" fill="#6f69f2"/>
    <path id="Path_1995" data-name="Path 1995" d="M2.4-31.029c0,1.613.342,5.94,6.136,5.94,5.207,0,6.013-3.5,6.111-5.353a.65.65,0,0,0-.538-.709l-2.762-.611a.762.762,0,0,0-.953.709c-.147,1.124-.513,1.76-1.858,1.76-1.809,0-1.931-1.149-1.931-3.031v-3.52c0-1.882.122-3.031,1.931-3.031a1.645,1.645,0,0,1,1.882,1.711.819.819,0,0,0,.978.758l2.713-.611a.641.641,0,0,0,.538-.684c-.1-1.882-.9-5.378-6.111-5.378-5.793,0-6.136,4.327-6.136,5.94ZM28.8-26.36c0,.538-.244.831-.733.831H25.329a.658.658,0,0,1-.733-.733v-2.127a.648.648,0,0,0-.733-.733h-2.1a.658.658,0,0,0-.733.733v2.127a.648.648,0,0,1-.733.733H17.556c-.464,0-.733-.293-.733-.831V-36.724c0-3.08.489-6.356,5.989-6.356S28.8-39.8,28.8-36.724ZM24.6-36.724c0-1.173-.171-1.76-1.784-1.76s-1.784.587-1.784,1.76v2.664a.669.669,0,0,0,.733.733h2.1a.676.676,0,0,0,.733-.758ZM37.527-42.64a.75.75,0,0,1,.782.66l1.736,7.113c.049.244.244.244.293,0l1.736-7.113a.75.75,0,0,1,.782-.66h5.06a.648.648,0,0,1,.733.733v15.645a.658.658,0,0,1-.733.733H45.178a.669.669,0,0,1-.733-.733v-9.631a.135.135,0,0,0-.269-.024L41.8-26.164a.754.754,0,0,1-.807.636H39.385a.754.754,0,0,1-.807-.636l-2.371-9.753a.135.135,0,0,0-.269.024v9.631a.658.658,0,0,1-.733.733H32.467a.658.658,0,0,1-.733-.733V-41.907a.648.648,0,0,1,.733-.733Zm14.911,0a.676.676,0,0,0-.733.758v15.62a.669.669,0,0,0,.733.733h2.738a.648.648,0,0,0,.733-.733v-3.911a.658.658,0,0,1,.733-.733h1.173c4.351,0,6.111-1.858,6.111-5.867s-1.76-5.867-6.111-5.867Zm4.2,7.529a.669.669,0,0,1-.733-.733V-37.7a.658.658,0,0,1,.733-.733h1.32c1.173,0,1.76.147,1.76,1.662s-.587,1.662-1.76,1.662Z" transform="translate(973.6 9617.226)" fill="#fff"/>
    <path id="Path_1994" data-name="Path 1994" d="M14.245-42a.648.648,0,0,1,.733.733v2.738a.658.658,0,0,1-.733.733H8.084a.658.658,0,0,0-.733.733v.782a.669.669,0,0,0,.733.733h4.033a.648.648,0,0,1,.733.733v2.738a.658.658,0,0,1-.733.733H8.084a.658.658,0,0,0-.733.733v4.987a.658.658,0,0,1-.733.733H3.733A.669.669,0,0,1,3-25.622V-41.267A.658.658,0,0,1,3.733-42ZM28.3-42a.648.648,0,0,1,.733.733v2.738a.658.658,0,0,1-.733.733H22.14a.658.658,0,0,0-.733.733v.782a.669.669,0,0,0,.733.733h4.033a.648.648,0,0,1,.733.733v2.738a.658.658,0,0,1-.733.733H22.14a.658.658,0,0,0-.733.733v4.987a.658.658,0,0,1-.733.733H17.789a.669.669,0,0,1-.733-.733V-41.267A.658.658,0,0,1,17.789-42Zm14.056,0a.648.648,0,0,1,.733.733v2.738a.658.658,0,0,1-.733.733H36.2a.658.658,0,0,0-.733.733v.782a.669.669,0,0,0,.733.733h4.033a.648.648,0,0,1,.733.733v2.738a.658.658,0,0,1-.733.733H36.2a.658.658,0,0,0-.733.733v4.987a.658.658,0,0,1-.733.733H31.845a.669.669,0,0,1-.733-.733V-41.267A.658.658,0,0,1,31.845-42Z" transform="translate(983.837 9638.366)" fill="#fff"/>
  </g>
</svg>
