<svg xmlns="http://www.w3.org/2000/svg" width="1084.586" height="267.475" viewBox="0 0 1084.586 267.475">
  <g id="capm-safe" transform="translate(-255.594 -8376.31)">
    <path id="Path_1984" data-name="Path 1984" d="M-315.695,2045v447.914" transform="translate(-1711.5 8072.49) rotate(-90)" fill="none" stroke="#3d3d4d" stroke-width="2"/>
    <path id="Path_1990" data-name="Path 1990" d="M-315.695,2045v447.914" transform="translate(-1225.5 8072.49) rotate(-90)" fill="none" stroke="#3d3d4d" stroke-width="2"/>
    <path id="Path_1988" data-name="Path 1988" d="M-315.695,2045v447.914" transform="translate(-1711.5 8322.806) rotate(-90)" fill="none" stroke="#3d3d4d" stroke-width="2"/>
    <g id="Group_373" data-name="Group 373">
      <path id="Path_1826" data-name="Path 1826" d="M1883.05-1844.883c3.851-4.237-.073-10.011-2.669-13.834l-.521-.765c-1.746-2.605-3.235-4.959-3.751-7.394a8.317,8.317,0,0,1,5.219-9.776,6.43,6.43,0,0,1,7.8,3.249,5.269,5.269,0,0,1-1.491,7,4.233,4.233,0,0,1-3.176.815,4.239,4.239,0,0,1-2.819-1.664,3.3,3.3,0,0,1-.362-3.376,2.771,2.771,0,0,1,1.938-1.6,2.11,2.11,0,0,1,1.475.232.856.856,0,0,0-.014.574.87.87,0,0,0,.433.508.863.863,0,0,0,.667.05.878.878,0,0,0,.555-1.1,1.368,1.368,0,0,0-.4-.538,3.319,3.319,0,0,0-2.937-.855,3.919,3.919,0,0,0-2.76,2.248,4.448,4.448,0,0,0,.488,4.545,5.384,5.384,0,0,0,3.578,2.113,5.4,5.4,0,0,0,4.024-1.037,6.417,6.417,0,0,0,1.815-8.449,8.2,8.2,0,0,0-2.224-2.645,15.987,15.987,0,0,0,2.059-.131h.006l.037-.006h.009l0,0h.009c.2-.029.4-.056.6-.093a21.327,21.327,0,0,0,11.456-6.094,21.284,21.284,0,0,0,6.086-11.448c.036-.2.066-.4.095-.605l0-.014,0-.027v-.014a15.787,15.787,0,0,0,.133-2.066,8.161,8.161,0,0,0,2.643,2.225,7.135,7.135,0,0,0,3.316.858,6.357,6.357,0,0,0,5.133-2.674,5.389,5.389,0,0,0,1.04-4.023,5.4,5.4,0,0,0-2.113-3.578,4.45,4.45,0,0,0-4.548-.488,3.919,3.919,0,0,0-2.245,2.757,3.3,3.3,0,0,0,.842,2.922,1.336,1.336,0,0,0,.549.417.854.854,0,0,0,.663-.053.84.84,0,0,0,.433-.505.857.857,0,0,0-.05-.661.858.858,0,0,0-.506-.435.866.866,0,0,0-.574.012,2.1,2.1,0,0,1-.231-1.473,2.765,2.765,0,0,1,1.6-1.94,3.317,3.317,0,0,1,3.377.361,4.286,4.286,0,0,1,.846,6,5.27,5.27,0,0,1-7,1.491,6.439,6.439,0,0,1-3.248-7.8,8.324,8.324,0,0,1,9.777-5.218c2.43.515,4.786,2,7.394,3.752l.766.518c3.82,2.6,9.595,6.52,13.833,2.671a5.481,5.481,0,0,0,1.876-4.28,5.068,5.068,0,0,0-2.2-3.886,4.412,4.412,0,0,0-6.173.872,3.685,3.685,0,0,0-.677,2.77,2.815,2.815,0,0,0,1.178,1.9,2.357,2.357,0,0,0,1.233.4,1.326,1.326,0,0,0,.836-.162.873.873,0,0,0,.235-1.205.855.855,0,0,0-.561-.37.859.859,0,0,0-.651.135.868.868,0,0,0-.293.339,1.444,1.444,0,0,1-.156-.09,1.679,1.679,0,0,1-.69-1.136,2.567,2.567,0,0,1,.464-1.9,3.269,3.269,0,0,1,4.566-.644,3.993,3.993,0,0,1,1.737,3.023,4.393,4.393,0,0,1-1.5,3.377c-3.562,3.242-8.892-.376-12.417-2.772l-.771-.521c-2.71-1.816-5.165-3.366-7.8-3.922a9.464,9.464,0,0,0-11.1,5.977c-.065.191-.12.38-.168.565a14.431,14.431,0,0,0-1.1-2.037,11.6,11.6,0,0,0-10.9-5.39,10.2,10.2,0,0,0-3.581.963,9.182,9.182,0,0,0-4.357,12.088,9.182,9.182,0,0,0-12.089,4.36,10.141,10.141,0,0,0-.964,3.578,11.6,11.6,0,0,0,5.392,10.9,14.684,14.684,0,0,0,2.04,1.1c-.189.047-.377.1-.57.165a9.468,9.468,0,0,0-5.977,11.1c.558,2.637,2.109,5.092,3.924,7.8l.521.773c2.4,3.522,6.014,8.849,2.772,12.412a4.371,4.371,0,0,1-3.376,1.5,4,4,0,0,1-3.027-1.74,3.264,3.264,0,0,1,.647-4.565,2.554,2.554,0,0,1,1.9-.462,1.668,1.668,0,0,1,1.133.689,1.341,1.341,0,0,1,.09.158.85.85,0,0,0-.339.291.876.876,0,0,0,.231,1.211.878.878,0,0,0,1.208-.233,1.353,1.353,0,0,0,.165-.841,2.376,2.376,0,0,0-.406-1.231,2.811,2.811,0,0,0-1.9-1.176,3.666,3.666,0,0,0-2.773.678,4.409,4.409,0,0,0-.872,6.169,5.076,5.076,0,0,0,3.888,2.2c.078,0,.153.006.23.006A5.511,5.511,0,0,0,1883.05-1844.883Zm13.572-43.493a.58.58,0,0,0-.155.529,7.6,7.6,0,0,1-1.914,6.635c-2.3,2.707-4.62,3.781-8.221,3.4a14.165,14.165,0,0,1-6.215-2.161,10.455,10.455,0,0,1-4.876-9.819,8.944,8.944,0,0,1,.858-3.2,8.034,8.034,0,0,1,10.7-3.752,6.256,6.256,0,0,1,3.57,5.621c.029,2.74-2.009,5.713-5.087,5.766h-.057a3.121,3.121,0,0,1-2.855-1.8,2.1,2.1,0,0,1-.08-1.614,2.088,2.088,0,0,1,1.086-1.2,1.538,1.538,0,0,1,.547-.148,1.025,1.025,0,0,0,.145.658,1.028,1.028,0,0,0,1.407.333,1.009,1.009,0,0,0,.459-.638,1.009,1.009,0,0,0-.126-.77,1.474,1.474,0,0,0-.742-.538,2.707,2.707,0,0,0-2.182.067,3.261,3.261,0,0,0-1.549,4.343,4.268,4.268,0,0,0,3.968,2.455c3.759-.067,6.252-3.637,6.217-6.927a7.5,7.5,0,0,0-.653-3,7.512,7.512,0,0,0,3,.656h.065c3.272,0,6.795-2.484,6.861-6.218a4.27,4.27,0,0,0-2.456-3.971,3.27,3.27,0,0,0-4.343,1.549,2.736,2.736,0,0,0-.066,2.187,1.51,1.51,0,0,0,.539.74,1.009,1.009,0,0,0,.776.125,1,1,0,0,0,.633-.462,1.009,1.009,0,0,0,.125-.767,1.017,1.017,0,0,0-.458-.636.983.983,0,0,0-.661-.143,1.542,1.542,0,0,1,.151-.55,2.116,2.116,0,0,1,2.815-1.005,3.126,3.126,0,0,1,1.8,2.914c-.053,3.057-2.984,5.089-5.711,5.089h-.053a6.268,6.268,0,0,1-5.622-3.569,8.036,8.036,0,0,1,3.751-10.707,9.035,9.035,0,0,1,3.2-.858c.34-.033.679-.053,1.017-.053a10.534,10.534,0,0,1,8.8,4.93,14.347,14.347,0,0,1,2.228,7.126c.139,3.2-1.169,5.413-3.576,7.409a7.573,7.573,0,0,1-6.526,1.818.637.637,0,0,0-.119-.011A.583.583,0,0,0,1896.622-1888.376Zm4.665,4.654a20.551,20.551,0,0,1-7.487,4.869c2.571-2.067,4.328-5.068,3.929-8.417,3.34.4,6.349-1.362,8.422-3.939A20.494,20.494,0,0,1,1901.287-1883.722Zm-23.245-16.883a7.158,7.158,0,0,1,5.288-.324.58.58,0,0,0,.61-.132.579.579,0,0,0,.13-.605,7.173,7.173,0,0,1,.326-5.292.839.839,0,0,0-.148-.914.863.863,0,0,0-.847-.235,3.983,3.983,0,0,0-1.79,1.006,7.386,7.386,0,0,0-4.168-1,.571.571,0,0,0-.545.542,7.488,7.488,0,0,0,1,4.171,3.993,3.993,0,0,0-1,1.791.848.848,0,0,0,.235.843.829.829,0,0,0,.569.224A.834.834,0,0,0,1878.043-1900.605Zm.193-1.311a3.115,3.115,0,0,1,.8-.961.573.573,0,0,0,.205-.4.581.581,0,0,0-.143-.426,5.673,5.673,0,0,1-1.05-3.257,5.687,5.687,0,0,1,3.257,1.052.6.6,0,0,0,.425.143.58.58,0,0,0,.4-.208,3.1,3.1,0,0,1,.96-.8,8.353,8.353,0,0,0-.382,4.466,7.646,7.646,0,0,0-1.5-.145A8.783,8.783,0,0,0,1878.235-1901.917Z" transform="translate(-1617.5 10293.5)" fill="#3d3d4d" stroke="#3d3d4d" stroke-width="1.8"/>
      <path id="Path_1986" data-name="Path 1986" d="M-315.695,2045v38.031" transform="translate(577.464 6479.5)" fill="none" stroke="#3d3d4d" stroke-width="2"/>
      <path id="Path_1987" data-name="Path 1987" d="M-315.695,2045v38.031" transform="translate(577.464 6413.5)" fill="none" stroke="#3d3d4d" stroke-width="2"/>
      <g id="Rectangle_66" data-name="Rectangle 66" transform="translate(261.784 8515.568) rotate(-135)" fill="none" stroke="#3d3d4d" stroke-linecap="round" stroke-linejoin="round" stroke-width="3">
        <rect width="7.473" height="7.473" stroke="none"/>
        <rect x="1.5" y="1.5" width="4.473" height="4.473" fill="none"/>
      </g>
      <path id="Path_1829" data-name="Path 1829" d="M1883.05-1909.116c3.851,4.237-.073,10.011-2.669,13.834l-.521.765c-1.746,2.605-3.235,4.959-3.751,7.394a8.317,8.317,0,0,0,5.219,9.776,6.43,6.43,0,0,0,7.8-3.249,5.269,5.269,0,0,0-1.491-7,4.233,4.233,0,0,0-3.176-.815,4.239,4.239,0,0,0-2.819,1.664,3.3,3.3,0,0,0-.362,3.376,2.771,2.771,0,0,0,1.938,1.6,2.11,2.11,0,0,0,1.475-.232.856.856,0,0,1-.014-.574.87.87,0,0,1,.433-.508.863.863,0,0,1,.667-.05.878.878,0,0,1,.555,1.1,1.368,1.368,0,0,1-.4.538,3.319,3.319,0,0,1-2.937.855,3.919,3.919,0,0,1-2.76-2.248,4.448,4.448,0,0,1,.488-4.545,5.384,5.384,0,0,1,3.578-2.113,5.4,5.4,0,0,1,4.024,1.037,6.417,6.417,0,0,1,1.815,8.449,8.2,8.2,0,0,1-2.224,2.645,15.987,15.987,0,0,1,2.059.131h.006l.037.006h.009l0,0h.009c.2.029.4.056.6.093a21.327,21.327,0,0,1,11.456,6.094,21.284,21.284,0,0,1,6.086,11.448c.036.2.066.4.095.605l0,.014,0,.027v.014a15.787,15.787,0,0,1,.133,2.066,8.161,8.161,0,0,1,2.643-2.225,7.135,7.135,0,0,1,3.316-.858,6.357,6.357,0,0,1,5.133,2.674,5.389,5.389,0,0,1,1.04,4.023,5.4,5.4,0,0,1-2.113,3.578,4.45,4.45,0,0,1-4.548.488,3.919,3.919,0,0,1-2.245-2.757,3.3,3.3,0,0,1,.842-2.922,1.336,1.336,0,0,1,.549-.417.854.854,0,0,1,.663.053.84.84,0,0,1,.433.505.857.857,0,0,1-.05.661.858.858,0,0,1-.506.435.866.866,0,0,1-.574-.012,2.1,2.1,0,0,0-.231,1.473,2.765,2.765,0,0,0,1.6,1.94,3.317,3.317,0,0,0,3.377-.361,4.286,4.286,0,0,0,.846-6,5.27,5.27,0,0,0-7-1.491,6.439,6.439,0,0,0-3.248,7.8,8.324,8.324,0,0,0,9.777,5.218c2.43-.515,4.786-2,7.394-3.752l.766-.518c3.82-2.6,9.595-6.52,13.833-2.671a5.481,5.481,0,0,1,1.876,4.28,5.068,5.068,0,0,1-2.2,3.886,4.412,4.412,0,0,1-6.173-.872,3.685,3.685,0,0,1-.677-2.77,2.815,2.815,0,0,1,1.178-1.9,2.357,2.357,0,0,1,1.233-.4,1.326,1.326,0,0,1,.836.162.873.873,0,0,1,.235,1.205.855.855,0,0,1-.561.37.859.859,0,0,1-.651-.135.868.868,0,0,1-.293-.339,1.444,1.444,0,0,0-.156.09,1.679,1.679,0,0,0-.69,1.136,2.567,2.567,0,0,0,.464,1.9,3.269,3.269,0,0,0,4.566.644,3.993,3.993,0,0,0,1.737-3.023,4.393,4.393,0,0,0-1.5-3.377c-3.562-3.242-8.892.376-12.417,2.772l-.771.521c-2.71,1.816-5.165,3.366-7.8,3.922a9.464,9.464,0,0,1-11.1-5.977c-.065-.191-.12-.38-.168-.565a14.431,14.431,0,0,1-1.1,2.037,11.6,11.6,0,0,1-10.9,5.39,10.2,10.2,0,0,1-3.581-.963,9.182,9.182,0,0,1-4.357-12.088,9.182,9.182,0,0,1-12.089-4.36,10.141,10.141,0,0,1-.964-3.578,11.6,11.6,0,0,1,5.392-10.9,14.684,14.684,0,0,1,2.04-1.1c-.189-.047-.377-.1-.57-.165a9.468,9.468,0,0,1-5.977-11.1c.558-2.637,2.109-5.092,3.924-7.8l.521-.773c2.4-3.522,6.014-8.849,2.772-12.412a4.371,4.371,0,0,0-3.376-1.5,4,4,0,0,0-3.027,1.74,3.264,3.264,0,0,0,.647,4.565,2.554,2.554,0,0,0,1.9.462,1.668,1.668,0,0,0,1.133-.689,1.341,1.341,0,0,0,.09-.158.85.85,0,0,1-.339-.291.876.876,0,0,1,.231-1.211.878.878,0,0,1,1.208.233,1.353,1.353,0,0,1,.165.841,2.376,2.376,0,0,1-.406,1.231,2.811,2.811,0,0,1-1.9,1.176,3.666,3.666,0,0,1-2.773-.678,4.409,4.409,0,0,1-.872-6.169,5.076,5.076,0,0,1,3.888-2.2c.078,0,.153-.006.23-.006A5.511,5.511,0,0,1,1883.05-1909.116Zm13.572,43.493a.58.58,0,0,1-.155-.529,7.6,7.6,0,0,0-1.914-6.635c-2.3-2.707-4.62-3.781-8.221-3.4a14.165,14.165,0,0,0-6.215,2.161,10.455,10.455,0,0,0-4.876,9.819,8.944,8.944,0,0,0,.858,3.2,8.034,8.034,0,0,0,10.7,3.752,6.256,6.256,0,0,0,3.57-5.621c.029-2.74-2.009-5.713-5.087-5.766h-.057a3.121,3.121,0,0,0-2.855,1.8,2.1,2.1,0,0,0-.08,1.614,2.088,2.088,0,0,0,1.086,1.2,1.538,1.538,0,0,0,.547.148,1.025,1.025,0,0,1,.145-.658,1.028,1.028,0,0,1,1.407-.333,1.009,1.009,0,0,1,.459.638,1.009,1.009,0,0,1-.126.77,1.474,1.474,0,0,1-.742.538,2.707,2.707,0,0,1-2.182-.067,3.261,3.261,0,0,1-1.549-4.343,4.268,4.268,0,0,1,3.968-2.455c3.759.067,6.252,3.637,6.217,6.927a7.5,7.5,0,0,1-.653,3,7.512,7.512,0,0,1,3-.656h.065c3.272,0,6.795,2.484,6.861,6.218a4.27,4.27,0,0,1-2.456,3.971,3.27,3.27,0,0,1-4.343-1.549,2.736,2.736,0,0,1-.066-2.187,1.51,1.51,0,0,1,.539-.74,1.009,1.009,0,0,1,.776-.125,1,1,0,0,1,.633.462,1.009,1.009,0,0,1,.125.767,1.017,1.017,0,0,1-.458.636.983.983,0,0,1-.661.143,1.542,1.542,0,0,0,.151.55,2.116,2.116,0,0,0,2.815,1.005,3.126,3.126,0,0,0,1.8-2.914c-.053-3.057-2.984-5.089-5.711-5.089h-.053a6.268,6.268,0,0,0-5.622,3.569,8.036,8.036,0,0,0,3.751,10.707,9.035,9.035,0,0,0,3.2.858c.34.033.679.053,1.017.053a10.534,10.534,0,0,0,8.8-4.93,14.347,14.347,0,0,0,2.228-7.126c.139-3.2-1.169-5.413-3.576-7.409a7.573,7.573,0,0,0-6.526-1.818.637.637,0,0,1-.119.011A.583.583,0,0,1,1896.622-1865.623Zm4.665-4.654a20.551,20.551,0,0,0-7.487-4.869c2.571,2.067,4.328,5.068,3.929,8.417,3.34-.4,6.349,1.362,8.422,3.939A20.494,20.494,0,0,0,1901.287-1870.277Zm-23.245,16.883a7.158,7.158,0,0,0,5.288.324.58.58,0,0,1,.61.132.579.579,0,0,1,.13.605,7.173,7.173,0,0,0,.326,5.292.839.839,0,0,1-.148.914.863.863,0,0,1-.847.235,3.983,3.983,0,0,1-1.79-1.006,7.386,7.386,0,0,1-4.168,1,.571.571,0,0,1-.545-.542,7.488,7.488,0,0,1,1-4.171,3.993,3.993,0,0,1-1-1.791.848.848,0,0,1,.235-.843.829.829,0,0,1,.569-.224A.834.834,0,0,1,1878.043-1853.394Zm.193,1.311a3.115,3.115,0,0,0,.8.961.573.573,0,0,1,.205.4.581.581,0,0,1-.143.426,5.673,5.673,0,0,0-1.05,3.257,5.687,5.687,0,0,0,3.257-1.052.6.6,0,0,1,.425-.143.58.58,0,0,1,.4.208,3.1,3.1,0,0,0,.96.8,8.353,8.353,0,0,1-.382-4.466,7.646,7.646,0,0,1-1.5.145A8.783,8.783,0,0,1,1878.235-1852.083Z" transform="translate(-1617.5 10481.5)" fill="#3d3d4d" stroke="#3d3d4d" stroke-width="1.8"/>
    </g>
    <g id="Group_375" data-name="Group 375" transform="translate(814.069 8377.215)">
      <path id="Path_1989" data-name="Path 1989" d="M0,447.914V0" transform="translate(0.5 256) rotate(-90)" fill="none" stroke="#3d3d4d" stroke-width="2"/>
      <g id="Group_374" data-name="Group 374" transform="translate(457.206)">
        <path id="Path_1826-2" data-name="Path 1826" d="M1932.95-1844.883c-3.851-4.237.073-10.011,2.669-13.834l.521-.765c1.746-2.605,3.235-4.959,3.751-7.394a8.317,8.317,0,0,0-5.219-9.776,6.43,6.43,0,0,0-7.8,3.249,5.269,5.269,0,0,0,1.491,7,4.233,4.233,0,0,0,3.176.815,4.239,4.239,0,0,0,2.819-1.664,3.3,3.3,0,0,0,.362-3.376,2.771,2.771,0,0,0-1.938-1.6,2.11,2.11,0,0,0-1.475.232.856.856,0,0,1,.014.574.87.87,0,0,1-.433.508.863.863,0,0,1-.667.05.878.878,0,0,1-.555-1.1,1.368,1.368,0,0,1,.4-.538,3.319,3.319,0,0,1,2.937-.855,3.919,3.919,0,0,1,2.76,2.248,4.448,4.448,0,0,1-.488,4.545,5.384,5.384,0,0,1-3.578,2.113,5.4,5.4,0,0,1-4.024-1.037,6.417,6.417,0,0,1-1.815-8.449,8.2,8.2,0,0,1,2.224-2.645,15.987,15.987,0,0,1-2.059-.131h-.006l-.037-.006h-.009l0,0h-.009c-.2-.029-.4-.056-.6-.093a21.327,21.327,0,0,1-11.456-6.094,21.284,21.284,0,0,1-6.086-11.448c-.036-.2-.066-.4-.095-.605l0-.014,0-.027v-.014a15.787,15.787,0,0,1-.133-2.066,8.161,8.161,0,0,1-2.643,2.225,7.135,7.135,0,0,1-3.316.858,6.357,6.357,0,0,1-5.133-2.674,5.389,5.389,0,0,1-1.04-4.023,5.4,5.4,0,0,1,2.113-3.578,4.45,4.45,0,0,1,4.548-.488,3.919,3.919,0,0,1,2.245,2.757,3.3,3.3,0,0,1-.842,2.922,1.336,1.336,0,0,1-.549.417.854.854,0,0,1-.663-.053.84.84,0,0,1-.433-.505.857.857,0,0,1,.05-.661.858.858,0,0,1,.506-.435.866.866,0,0,1,.574.012,2.1,2.1,0,0,0,.231-1.473,2.765,2.765,0,0,0-1.6-1.94,3.317,3.317,0,0,0-3.377.361,4.286,4.286,0,0,0-.846,6,5.27,5.27,0,0,0,7,1.491,6.439,6.439,0,0,0,3.248-7.8,8.324,8.324,0,0,0-9.777-5.218c-2.43.515-4.786,2-7.394,3.752l-.766.518c-3.82,2.6-9.595,6.52-13.833,2.671a5.481,5.481,0,0,1-1.876-4.28,5.068,5.068,0,0,1,2.2-3.886,4.412,4.412,0,0,1,6.173.872,3.685,3.685,0,0,1,.677,2.77,2.815,2.815,0,0,1-1.178,1.9,2.357,2.357,0,0,1-1.233.4,1.326,1.326,0,0,1-.836-.162.873.873,0,0,1-.235-1.205.855.855,0,0,1,.561-.37.859.859,0,0,1,.651.135.868.868,0,0,1,.293.339,1.444,1.444,0,0,0,.156-.09,1.679,1.679,0,0,0,.69-1.136,2.567,2.567,0,0,0-.464-1.9,3.269,3.269,0,0,0-4.566-.644,3.993,3.993,0,0,0-1.737,3.023,4.393,4.393,0,0,0,1.5,3.377c3.562,3.242,8.892-.376,12.417-2.772l.771-.521c2.71-1.816,5.165-3.366,7.8-3.922a9.464,9.464,0,0,1,11.1,5.977c.065.191.12.38.168.565a14.431,14.431,0,0,1,1.1-2.037,11.6,11.6,0,0,1,10.9-5.39,10.2,10.2,0,0,1,3.581.963,9.182,9.182,0,0,1,4.357,12.088,9.182,9.182,0,0,1,12.089,4.36,10.141,10.141,0,0,1,.964,3.578,11.6,11.6,0,0,1-5.392,10.9,14.684,14.684,0,0,1-2.04,1.1c.189.047.377.1.57.165a9.468,9.468,0,0,1,5.977,11.1c-.558,2.637-2.109,5.092-3.924,7.8l-.521.773c-2.4,3.522-6.014,8.849-2.772,12.412a4.371,4.371,0,0,0,3.376,1.5,4,4,0,0,0,3.027-1.74,3.264,3.264,0,0,0-.647-4.565,2.554,2.554,0,0,0-1.9-.462,1.668,1.668,0,0,0-1.133.689,1.341,1.341,0,0,0-.09.158.85.85,0,0,1,.339.291.876.876,0,0,1-.231,1.211.878.878,0,0,1-1.208-.233,1.353,1.353,0,0,1-.165-.841,2.376,2.376,0,0,1,.406-1.231,2.811,2.811,0,0,1,1.9-1.176,3.666,3.666,0,0,1,2.773.678,4.409,4.409,0,0,1,.872,6.169,5.076,5.076,0,0,1-3.888,2.2c-.078,0-.153.006-.23.006A5.511,5.511,0,0,1,1932.95-1844.883Zm-13.572-43.493a.58.58,0,0,1,.155.529,7.6,7.6,0,0,0,1.914,6.635c2.3,2.707,4.62,3.781,8.221,3.4a14.165,14.165,0,0,0,6.215-2.161,10.455,10.455,0,0,0,4.876-9.819,8.944,8.944,0,0,0-.858-3.2,8.034,8.034,0,0,0-10.7-3.752,6.256,6.256,0,0,0-3.57,5.621c-.029,2.74,2.009,5.713,5.087,5.766h.057a3.121,3.121,0,0,0,2.855-1.8,2.1,2.1,0,0,0,.08-1.614,2.088,2.088,0,0,0-1.086-1.2,1.538,1.538,0,0,0-.547-.148,1.025,1.025,0,0,1-.145.658,1.028,1.028,0,0,1-1.407.333,1.009,1.009,0,0,1-.459-.638,1.009,1.009,0,0,1,.126-.77,1.474,1.474,0,0,1,.742-.538,2.707,2.707,0,0,1,2.182.067,3.261,3.261,0,0,1,1.549,4.343,4.268,4.268,0,0,1-3.968,2.455c-3.759-.067-6.252-3.637-6.217-6.927a7.5,7.5,0,0,1,.653-3,7.512,7.512,0,0,1-3,.656h-.065c-3.272,0-6.795-2.484-6.861-6.218a4.27,4.27,0,0,1,2.456-3.971,3.27,3.27,0,0,1,4.343,1.549,2.736,2.736,0,0,1,.066,2.187,1.51,1.51,0,0,1-.539.74,1.009,1.009,0,0,1-.776.125,1,1,0,0,1-.633-.462,1.009,1.009,0,0,1-.125-.767,1.017,1.017,0,0,1,.458-.636.983.983,0,0,1,.661-.143,1.542,1.542,0,0,0-.151-.55,2.116,2.116,0,0,0-2.815-1.005,3.126,3.126,0,0,0-1.8,2.914c.053,3.057,2.984,5.089,5.711,5.089h.053a6.268,6.268,0,0,0,5.622-3.569,8.036,8.036,0,0,0-3.751-10.707,9.035,9.035,0,0,0-3.2-.858c-.34-.033-.679-.053-1.017-.053a10.534,10.534,0,0,0-8.8,4.93,14.347,14.347,0,0,0-2.228,7.126c-.139,3.2,1.169,5.413,3.576,7.409a7.573,7.573,0,0,0,6.526,1.818.637.637,0,0,1,.119-.011A.583.583,0,0,1,1919.378-1888.376Zm-4.665,4.654a20.551,20.551,0,0,0,7.487,4.869c-2.571-2.067-4.328-5.068-3.929-8.417-3.34.4-6.349-1.362-8.422-3.939A20.494,20.494,0,0,0,1914.713-1883.722Zm23.245-16.883a7.158,7.158,0,0,0-5.288-.324.58.58,0,0,1-.61-.132.579.579,0,0,1-.13-.605,7.173,7.173,0,0,0-.326-5.292.839.839,0,0,1,.148-.914.863.863,0,0,1,.847-.235,3.983,3.983,0,0,1,1.79,1.006,7.386,7.386,0,0,1,4.168-1,.571.571,0,0,1,.545.542,7.488,7.488,0,0,1-1,4.171,3.993,3.993,0,0,1,1,1.791.848.848,0,0,1-.235.843.829.829,0,0,1-.569.224A.834.834,0,0,1,1937.957-1900.605Zm-.193-1.311a3.115,3.115,0,0,0-.8-.961.573.573,0,0,1-.205-.4.581.581,0,0,1,.143-.426,5.673,5.673,0,0,0,1.05-3.257,5.687,5.687,0,0,0-3.257,1.052.6.6,0,0,1-.425.143.58.58,0,0,1-.4-.208,3.1,3.1,0,0,0-.96-.8,8.353,8.353,0,0,1,.382,4.466,7.646,7.646,0,0,1,1.5-.145A8.783,8.783,0,0,1,1937.765-1901.917Z" transform="translate(-1874 1911)" fill="#3d3d4d" stroke="#3d3d4d" stroke-width="1.8"/>
        <path id="Path_1986-2" data-name="Path 1986" d="M-315.695,2045v38.031" transform="translate(378.425 -1903)" fill="none" stroke="#3d3d4d" stroke-width="2"/>
        <path id="Path_1987-2" data-name="Path 1987" d="M-315.695,2045v38.031" transform="translate(378.425 -1969)" fill="none" stroke="#3d3d4d" stroke-width="2"/>
        <g id="Rectangle_66-2" data-name="Rectangle 66" transform="translate(57.431 127.784) rotate(-45)" fill="none" stroke="#3d3d4d" stroke-linecap="round" stroke-linejoin="round" stroke-width="3">
          <rect width="7.473" height="7.473" stroke="none"/>
          <rect x="1.5" y="1.5" width="4.473" height="4.473" fill="none"/>
        </g>
        <path id="Path_1829-2" data-name="Path 1829" d="M1932.95-1909.116c-3.851,4.237.073,10.011,2.669,13.834l.521.765c1.746,2.605,3.235,4.959,3.751,7.394a8.317,8.317,0,0,1-5.219,9.776,6.43,6.43,0,0,1-7.8-3.249,5.269,5.269,0,0,1,1.491-7,4.233,4.233,0,0,1,3.176-.815,4.239,4.239,0,0,1,2.819,1.664,3.3,3.3,0,0,1,.362,3.376,2.771,2.771,0,0,1-1.938,1.6,2.11,2.11,0,0,1-1.475-.232.856.856,0,0,0,.014-.574.87.87,0,0,0-.433-.508.863.863,0,0,0-.667-.05.878.878,0,0,0-.555,1.1,1.368,1.368,0,0,0,.4.538,3.319,3.319,0,0,0,2.937.855,3.919,3.919,0,0,0,2.76-2.248,4.448,4.448,0,0,0-.488-4.545,5.384,5.384,0,0,0-3.578-2.113,5.4,5.4,0,0,0-4.024,1.037,6.417,6.417,0,0,0-1.815,8.449,8.2,8.2,0,0,0,2.224,2.645,15.987,15.987,0,0,0-2.059.131h-.006l-.037.006h-.009l0,0h-.009c-.2.029-.4.056-.6.093a21.327,21.327,0,0,0-11.456,6.094,21.284,21.284,0,0,0-6.086,11.448c-.036.2-.066.4-.095.605l0,.014,0,.027v.014a15.787,15.787,0,0,0-.133,2.066,8.161,8.161,0,0,0-2.643-2.225,7.135,7.135,0,0,0-3.316-.858,6.357,6.357,0,0,0-5.133,2.674,5.389,5.389,0,0,0-1.04,4.023,5.4,5.4,0,0,0,2.113,3.578,4.45,4.45,0,0,0,4.548.488,3.919,3.919,0,0,0,2.245-2.757,3.3,3.3,0,0,0-.842-2.922,1.336,1.336,0,0,0-.549-.417.854.854,0,0,0-.663.053.84.84,0,0,0-.433.505.857.857,0,0,0,.05.661.858.858,0,0,0,.506.435.866.866,0,0,0,.574-.012,2.1,2.1,0,0,1,.231,1.473,2.765,2.765,0,0,1-1.6,1.94,3.317,3.317,0,0,1-3.377-.361,4.286,4.286,0,0,1-.846-6,5.27,5.27,0,0,1,7-1.491,6.439,6.439,0,0,1,3.248,7.8,8.324,8.324,0,0,1-9.777,5.218c-2.43-.515-4.786-2-7.394-3.752l-.766-.518c-3.82-2.6-9.595-6.52-13.833-2.671a5.481,5.481,0,0,0-1.876,4.28,5.068,5.068,0,0,0,2.2,3.886,4.412,4.412,0,0,0,6.173-.872,3.685,3.685,0,0,0,.677-2.77,2.815,2.815,0,0,0-1.178-1.9,2.357,2.357,0,0,0-1.233-.4,1.326,1.326,0,0,0-.836.162.873.873,0,0,0-.235,1.205.855.855,0,0,0,.561.37.859.859,0,0,0,.651-.135.868.868,0,0,0,.293-.339,1.444,1.444,0,0,1,.156.09,1.679,1.679,0,0,1,.69,1.136,2.567,2.567,0,0,1-.464,1.9,3.269,3.269,0,0,1-4.566.644,3.993,3.993,0,0,1-1.737-3.023,4.393,4.393,0,0,1,1.5-3.377c3.562-3.242,8.892.376,12.417,2.772l.771.521c2.71,1.816,5.165,3.366,7.8,3.922a9.464,9.464,0,0,0,11.1-5.977c.065-.191.12-.38.168-.565a14.431,14.431,0,0,0,1.1,2.037,11.6,11.6,0,0,0,10.9,5.39,10.2,10.2,0,0,0,3.581-.963,9.182,9.182,0,0,0,4.357-12.088,9.182,9.182,0,0,0,12.089-4.36,10.141,10.141,0,0,0,.964-3.578,11.6,11.6,0,0,0-5.392-10.9,14.684,14.684,0,0,0-2.04-1.1c.189-.047.377-.1.57-.165a9.468,9.468,0,0,0,5.977-11.1c-.558-2.637-2.109-5.092-3.924-7.8l-.521-.773c-2.4-3.522-6.014-8.849-2.772-12.412a4.371,4.371,0,0,1,3.376-1.5,4,4,0,0,1,3.027,1.74,3.264,3.264,0,0,1-.647,4.565,2.554,2.554,0,0,1-1.9.462,1.668,1.668,0,0,1-1.133-.689,1.341,1.341,0,0,1-.09-.158.85.85,0,0,0,.339-.291.876.876,0,0,0-.231-1.211.878.878,0,0,0-1.208.233,1.353,1.353,0,0,0-.165.841,2.376,2.376,0,0,0,.406,1.231,2.811,2.811,0,0,0,1.9,1.176,3.666,3.666,0,0,0,2.773-.678,4.409,4.409,0,0,0,.872-6.169,5.076,5.076,0,0,0-3.888-2.2c-.078,0-.153-.006-.23-.006A5.511,5.511,0,0,0,1932.95-1909.116Zm-13.572,43.493a.58.58,0,0,0,.155-.529,7.6,7.6,0,0,1,1.914-6.635c2.3-2.707,4.62-3.781,8.221-3.4a14.165,14.165,0,0,1,6.215,2.161,10.455,10.455,0,0,1,4.876,9.819,8.944,8.944,0,0,1-.858,3.2,8.034,8.034,0,0,1-10.7,3.752,6.256,6.256,0,0,1-3.57-5.621c-.029-2.74,2.009-5.713,5.087-5.766h.057a3.121,3.121,0,0,1,2.855,1.8,2.1,2.1,0,0,1,.08,1.614,2.088,2.088,0,0,1-1.086,1.2,1.538,1.538,0,0,1-.547.148,1.025,1.025,0,0,0-.145-.658,1.028,1.028,0,0,0-1.407-.333,1.009,1.009,0,0,0-.459.638,1.009,1.009,0,0,0,.126.77,1.474,1.474,0,0,0,.742.538,2.707,2.707,0,0,0,2.182-.067,3.261,3.261,0,0,0,1.549-4.343,4.268,4.268,0,0,0-3.968-2.455c-3.759.067-6.252,3.637-6.217,6.927a7.5,7.5,0,0,0,.653,3,7.512,7.512,0,0,0-3-.656h-.065c-3.272,0-6.795,2.484-6.861,6.218a4.27,4.27,0,0,0,2.456,3.971,3.27,3.27,0,0,0,4.343-1.549,2.736,2.736,0,0,0,.066-2.187,1.51,1.51,0,0,0-.539-.74,1.009,1.009,0,0,0-.776-.125,1,1,0,0,0-.633.462,1.009,1.009,0,0,0-.125.767,1.017,1.017,0,0,0,.458.636.983.983,0,0,0,.661.143,1.542,1.542,0,0,1-.151.55,2.116,2.116,0,0,1-2.815,1.005,3.126,3.126,0,0,1-1.8-2.914c.053-3.057,2.984-5.089,5.711-5.089h.053a6.268,6.268,0,0,1,5.622,3.569,8.036,8.036,0,0,1-3.751,10.707,9.035,9.035,0,0,1-3.2.858c-.34.033-.679.053-1.017.053a10.534,10.534,0,0,1-8.8-4.93,14.347,14.347,0,0,1-2.228-7.126c-.139-3.2,1.169-5.413,3.576-7.409a7.573,7.573,0,0,1,6.526-1.818.637.637,0,0,0,.119.011A.583.583,0,0,0,1919.378-1865.623Zm-4.665-4.654a20.551,20.551,0,0,1,7.487-4.869c-2.571,2.067-4.328,5.068-3.929,8.417-3.34-.4-6.349,1.362-8.422,3.939A20.494,20.494,0,0,1,1914.713-1870.277Zm23.245,16.883a7.158,7.158,0,0,1-5.288.324.58.58,0,0,0-.61.132.579.579,0,0,0-.13.605,7.173,7.173,0,0,1-.326,5.292.839.839,0,0,0,.148.914.863.863,0,0,0,.847.235,3.983,3.983,0,0,0,1.79-1.006,7.386,7.386,0,0,0,4.168,1,.571.571,0,0,0,.545-.542,7.488,7.488,0,0,0-1-4.171,3.993,3.993,0,0,0,1-1.791.848.848,0,0,0-.235-.843.829.829,0,0,0-.569-.224A.834.834,0,0,0,1937.957-1853.394Zm-.193,1.311a3.115,3.115,0,0,1-.8.961.573.573,0,0,0-.205.4.581.581,0,0,0,.143.426,5.673,5.673,0,0,1,1.05,3.257,5.687,5.687,0,0,1-3.257-1.052.6.6,0,0,0-.425-.143.58.58,0,0,0-.4.208,3.1,3.1,0,0,1-.96.8,8.353,8.353,0,0,0,.382-4.466,7.646,7.646,0,0,0,1.5.145A8.783,8.783,0,0,0,1937.765-1852.083Z" transform="translate(-1874 2099)" fill="#3d3d4d" stroke="#3d3d4d" stroke-width="1.8"/>
      </g>
    </g>
    <g id="Rectangle_67" data-name="Rectangle 67" transform="translate(800.284 8393.068) rotate(-135)" fill="none" stroke="#3d3d4d" stroke-linecap="round" stroke-linejoin="round" stroke-width="3">
      <rect width="7.473" height="7.473" stroke="none"/>
      <rect x="1.5" y="1.5" width="4.473" height="4.473" fill="none"/>
    </g>
    <g id="Rectangle_68" data-name="Rectangle 68" transform="translate(800.284 8643.784) rotate(-135)" fill="none" stroke="#3d3d4d" stroke-linecap="round" stroke-linejoin="round" stroke-width="3">
      <rect width="7.473" height="7.473" stroke="none"/>
      <rect x="1.5" y="1.5" width="4.473" height="4.473" fill="none"/>
    </g>
  </g>
</svg>
