<svg xmlns="http://www.w3.org/2000/svg" width="69.801" height="69.8" viewBox="0 0 69.801 69.8">
  <path id="mendela-pattern" d="M158.639-1845.206h-.01a5.954,5.954,0,0,1-4.564-2.556,5.273,5.273,0,0,1-1.012-3.932,5.269,5.269,0,0,1,2.063-3.5,4.568,4.568,0,0,1,2.735-.908,4.336,4.336,0,0,1,.729.062,3.7,3.7,0,0,1,2.491,1.559,3.278,3.278,0,0,1,.561,1.7,2.242,2.242,0,0,1-.32,1.385,1.772,1.772,0,0,1-1.466.772,1.774,1.774,0,0,1-.982-.3l-.012-.007a1.781,1.781,0,0,1-.624-2.174,1.105,1.105,0,0,0-.13-.03,1.666,1.666,0,0,0-1.211.294,2.338,2.338,0,0,0-.916,1.554,2.349,2.349,0,0,0,.449,1.75,3.129,3.129,0,0,0,2.348,1.381,3.47,3.47,0,0,0,2.669-1.211c1.186-1.3,1.365-3.041.548-5.312a28.908,28.908,0,0,0-3.4-5.99l-.524-.777c-1.871-2.788-3.467-5.322-4.057-8.112a10.428,10.428,0,0,1,5.25-11.581c-.12-.072-.237-.146-.353-.221a12.494,12.494,0,0,1-5.8-11.747,11,11,0,0,1,1.049-3.878,10.012,10.012,0,0,1,3.788-4.2,10.114,10.114,0,0,1,5.3-1.5,9.957,9.957,0,0,1,2.355.28,10.027,10.027,0,0,1,.318-5.779,10,10,0,0,1,5.1-5.666,11.048,11.048,0,0,1,3.879-1.047,12.081,12.081,0,0,1,1.238-.064,12.547,12.547,0,0,1,10.51,5.86c.076.115.148.232.221.35a10.217,10.217,0,0,1,2.937-3.435,10.359,10.359,0,0,1,6.255-2.066,11.585,11.585,0,0,1,2.39.255c2.784.589,5.32,2.184,8.111,4.055l.773.522c2.425,1.649,5.746,3.905,8.536,3.905a3.943,3.943,0,0,0,2.772-1.053,3.489,3.489,0,0,0,1.207-2.668,3.128,3.128,0,0,0-1.379-2.348,2.349,2.349,0,0,0-1.417-.472,2.342,2.342,0,0,0-1.889.938,1.662,1.662,0,0,0-.3,1.205,1.331,1.331,0,0,0,.031.134,1.759,1.759,0,0,1,.708-.148,1.706,1.706,0,0,1,.331.031,1.75,1.75,0,0,1,1.141.752,1.775,1.775,0,0,1-.476,2.451,2.051,2.051,0,0,1-1.19.323c-.063,0-.129,0-.2-.005a3.241,3.241,0,0,1-1.69-.554l-.005,0a3.709,3.709,0,0,1-1.561-2.5,4.606,4.606,0,0,1,.846-3.46,5.33,5.33,0,0,1,4.246-2.116,5.265,5.265,0,0,1,3.188,1.066,5.94,5.94,0,0,1,2.552,4.564,6.376,6.376,0,0,1-2.169,4.987,6.867,6.867,0,0,1-4.747,1.845c-3.666,0-7.439-2.563-10.194-4.434l0,0-.765-.516c-2.525-1.693-4.8-3.135-7.077-3.616a8.535,8.535,0,0,0-1.768-.19,7.325,7.325,0,0,0-6.97,4.811,5.551,5.551,0,0,0,2.813,6.716,5.2,5.2,0,0,0,2.4.62,4.21,4.21,0,0,0,3.463-1.855,3.352,3.352,0,0,0,.645-2.506,3.368,3.368,0,0,0-1.314-2.231,2.4,2.4,0,0,0-1.45-.483,2.407,2.407,0,0,0-1.011.22,1.866,1.866,0,0,0-1.092,1.294,1.283,1.283,0,0,0-.022.377,1.688,1.688,0,0,1,.22.056,1.748,1.748,0,0,1,1.032.885,1.763,1.763,0,0,1,.1,1.346,1.733,1.733,0,0,1-.882,1.03,1.77,1.77,0,0,1-1.346.106,2.149,2.149,0,0,1-.936-.665,4.185,4.185,0,0,1-1.061-3.707,4.819,4.819,0,0,1,2.751-3.4,5.312,5.312,0,0,1,2.241-.492,5.4,5.4,0,0,1,3.224,1.079,6.294,6.294,0,0,1,2.463,4.17,6.285,6.285,0,0,1-1.213,4.693,7.223,7.223,0,0,1-5.851,3.032,7.993,7.993,0,0,1-3.734-.961,8.924,8.924,0,0,1-1.451-.954c0,.018,0,.037-.007.056v0l-.012.118-.006.031c-.026.182-.058.394-.1.609a22.178,22.178,0,0,1-6.336,11.928,22.232,22.232,0,0,1-11.935,6.344c-.146.027-.288.049-.427.068l-.058.041h-.23l-.053.006-.049.005a8.837,8.837,0,0,1,.955,1.453,7.674,7.674,0,0,1,.8,5.218,7.386,7.386,0,0,1-2.873,4.366,6.273,6.273,0,0,1-3.8,1.274,6.37,6.37,0,0,1-.9-.064,6.276,6.276,0,0,1-4.171-2.464,5.345,5.345,0,0,1-.585-5.462,4.822,4.822,0,0,1,3.4-2.754,4.222,4.222,0,0,1,.824-.082,4.27,4.27,0,0,1,2.9,1.159l.007.007a2.2,2.2,0,0,1,.636.908l0,.006a1.78,1.78,0,0,1-1.124,2.227l-.007,0a1.777,1.777,0,0,1-.555.089,1.749,1.749,0,0,1-.8-.192,1.768,1.768,0,0,1-.88-1.026,1.865,1.865,0,0,1-.059-.229,1.25,1.25,0,0,0-.369.021,1.875,1.875,0,0,0-1.3,1.094,2.4,2.4,0,0,0,.262,2.46,3.345,3.345,0,0,0,2.226,1.315,3.332,3.332,0,0,0,2.51-.643,4.412,4.412,0,0,0,1.235-5.86,5.733,5.733,0,0,0-4.918-3.118,5.651,5.651,0,0,0-1.8.3,7.418,7.418,0,0,0-4.625,8.736c.482,2.271,1.922,4.549,3.616,7.076l.524.77a30.224,30.224,0,0,1,3.857,6.979c1.067,3.179.64,5.857-1.272,7.96a6.432,6.432,0,0,1-4.714,2.179C158.808-1845.2,158.718-1845.2,158.639-1845.206Zm.85-53.465a7.071,7.071,0,0,0-2.678,2.97,8.1,8.1,0,0,0-.773,2.9,9.563,9.563,0,0,0,4.469,8.971,13.276,13.276,0,0,0,5.82,2.021,12.066,12.066,0,0,0,1.25.07c2.49,0,4.284-.915,6.191-3.157a6.721,6.721,0,0,0,1.721-5.855l0-.01a1.469,1.469,0,0,1,.4-1.355,1.473,1.473,0,0,1,1.047-.427,1.528,1.528,0,0,1,.286.027l.028.005a5.838,5.838,0,0,0,1.275.142,7.084,7.084,0,0,0,4.482-1.775c2.4-1.985,3.368-3.983,3.251-6.675a13.385,13.385,0,0,0-2.084-6.676,9.63,9.63,0,0,0-8.045-4.519c-.287,0-.591.016-.93.049a8.205,8.205,0,0,0-2.9.773,7.134,7.134,0,0,0-3.33,9.507,5.373,5.373,0,0,0,4.815,3.059h.049c2.289,0,4.768-1.689,4.811-4.2a2.236,2.236,0,0,0-1.281-2.084,1.218,1.218,0,0,0-.518-.115,1.223,1.223,0,0,0-.814.311,1.915,1.915,0,0,1,.744,1.113l0,.008a1.9,1.9,0,0,1-.235,1.442,1.9,1.9,0,0,1-1.191.867,1.93,1.93,0,0,1-1.457-.234l-.005,0a2.37,2.37,0,0,1-.892-1.156l0-.012a3.641,3.641,0,0,1,.087-2.908,4.191,4.191,0,0,1,3.768-2.376,4.115,4.115,0,0,1,1.773.4,5.163,5.163,0,0,1,2.971,4.8,6.871,6.871,0,0,1-2.55,5.185,8.249,8.249,0,0,1-5.211,1.919h-.074a8.552,8.552,0,0,1-1.6-.169,8.515,8.515,0,0,1,.167,1.6,8.226,8.226,0,0,1-1.893,5.256,6.872,6.872,0,0,1-5.207,2.58h-.1a5.154,5.154,0,0,1-4.7-2.971,4.127,4.127,0,0,1-.158-3.18,4.131,4.131,0,0,1,2.136-2.361,3.611,3.611,0,0,1,1.552-.352,3.594,3.594,0,0,1,1.354.263,2.309,2.309,0,0,1,1.172.9,1.906,1.906,0,0,1,.236,1.444,1.9,1.9,0,0,1-.865,1.2,1.906,1.906,0,0,1-1,.284,1.922,1.922,0,0,1-1.565-.8,1.212,1.212,0,0,0-.239.4,1.2,1.2,0,0,0,.046.928,2.21,2.21,0,0,0,2.041,1.283h.049a3.976,3.976,0,0,0,3.02-1.544,5.248,5.248,0,0,0,1.176-3.312,5.365,5.365,0,0,0-3.06-4.819,7.04,7.04,0,0,0-3.072-.7A7.175,7.175,0,0,0,159.489-1898.672Zm23.672,8.02a9.307,9.307,0,0,1-4.575,1.238,9.422,9.422,0,0,1-1.251,4.606,19.931,19.931,0,0,0,3.211-2.646l.012-.012a19.764,19.764,0,0,0,2.644-3.21Zm-26.743-12.542a1.736,1.736,0,0,1-.5-1.717l0-.009a4.865,4.865,0,0,1,.788-1.669,8.686,8.686,0,0,1-.808-4.115,1.467,1.467,0,0,1,1.4-1.4c.149-.009.3-.013.454-.013a8.5,8.5,0,0,1,3.661.82,4.807,4.807,0,0,1,1.669-.789l.015,0a1.874,1.874,0,0,1,.434-.051,1.738,1.738,0,0,1,1.283.554,1.738,1.738,0,0,1,.306,1.89,6.254,6.254,0,0,0-.3,4.609,1.484,1.484,0,0,1-.331,1.551l-.012.012a1.472,1.472,0,0,1-1.038.426,1.5,1.5,0,0,1-.508-.089l-.012,0a5.11,5.11,0,0,0-1.8-.307,6.954,6.954,0,0,0-2.8.61,1.738,1.738,0,0,1-.713.155A1.725,1.725,0,0,1,156.417-1903.194Zm3.249-4.2,0,0a1.491,1.491,0,0,1,.367,1.011,9.255,9.255,0,0,1,1.528-.05,9.075,9.075,0,0,1,.049-1.528h-.02a1.5,1.5,0,0,1-.993-.371,3.849,3.849,0,0,0-1.623-.69A3.77,3.77,0,0,0,159.666-1907.4Z" transform="translate(-153 1915)" fill="#6f69f2"/>
</svg>
