<svg xmlns="http://www.w3.org/2000/svg" width="69.801" height="69.8" viewBox="0 0 69.801 69.8">
  <path id="mendela-pattern-4" d="M155.56-1846.266a5.941,5.941,0,0,1-2.553-4.564,6.377,6.377,0,0,1,2.17-4.987,6.87,6.87,0,0,1,4.747-1.845c3.665,0,7.438,2.563,10.193,4.434l0,0,.764.517c2.525,1.693,4.8,3.135,7.078,3.617a8.6,8.6,0,0,0,1.768.189,7.325,7.325,0,0,0,6.969-4.811,5.549,5.549,0,0,0-2.812-6.716,5.194,5.194,0,0,0-2.4-.62,4.209,4.209,0,0,0-3.463,1.855,3.348,3.348,0,0,0-.645,2.505,3.365,3.365,0,0,0,1.314,2.232,2.4,2.4,0,0,0,1.45.483,2.412,2.412,0,0,0,1.011-.221,1.866,1.866,0,0,0,1.092-1.294,1.341,1.341,0,0,0,.022-.376,1.822,1.822,0,0,1-.22-.057,1.75,1.75,0,0,1-1.033-.885,1.767,1.767,0,0,1-.1-1.346,1.734,1.734,0,0,1,.883-1.03,1.773,1.773,0,0,1,1.346-.106,2.153,2.153,0,0,1,.937.665,4.186,4.186,0,0,1,1.061,3.707,4.816,4.816,0,0,1-2.752,3.4,5.309,5.309,0,0,1-2.241.492,5.4,5.4,0,0,1-3.224-1.079,6.289,6.289,0,0,1-2.462-4.17,6.28,6.28,0,0,1,1.212-4.693,7.227,7.227,0,0,1,5.852-3.032,7.99,7.99,0,0,1,3.733.961,8.789,8.789,0,0,1,1.451.955c0-.019.005-.038.007-.057v0l.013-.118.006-.031c.026-.182.058-.394.1-.609a22.171,22.171,0,0,1,6.336-11.928,22.232,22.232,0,0,1,11.935-6.344c.146-.027.287-.049.426-.068l.059-.041h.23l.053-.005.05-.006a8.839,8.839,0,0,1-.955-1.453,7.679,7.679,0,0,1-.8-5.218,7.392,7.392,0,0,1,2.873-4.366,6.275,6.275,0,0,1,3.8-1.273,6.346,6.346,0,0,1,.9.063,6.278,6.278,0,0,1,4.171,2.464,5.343,5.343,0,0,1,.586,5.462,4.822,4.822,0,0,1-3.4,2.754,4.206,4.206,0,0,1-.823.082,4.27,4.27,0,0,1-2.9-1.159l-.008-.007a2.2,2.2,0,0,1-.635-.908l0-.006a1.78,1.78,0,0,1,1.124-2.227l.007,0a1.773,1.773,0,0,1,.555-.089,1.757,1.757,0,0,1,.8.192,1.771,1.771,0,0,1,.88,1.026,1.762,1.762,0,0,1,.059.229,1.243,1.243,0,0,0,.368-.021,1.872,1.872,0,0,0,1.3-1.094,2.407,2.407,0,0,0-.262-2.46,3.349,3.349,0,0,0-2.227-1.315,3.334,3.334,0,0,0-2.509.643,4.411,4.411,0,0,0-1.235,5.86,5.731,5.731,0,0,0,4.917,3.119,5.661,5.661,0,0,0,1.8-.3,7.419,7.419,0,0,0,4.625-8.736c-.481-2.272-1.922-4.549-3.616-7.076l-.525-.769a30.24,30.24,0,0,1-3.857-6.979c-1.067-3.179-.64-5.857,1.272-7.96A6.437,6.437,0,0,1,216.9-1915c.094,0,.184,0,.263.006h.01a5.955,5.955,0,0,1,4.564,2.556,5.269,5.269,0,0,1,1.012,3.932,5.263,5.263,0,0,1-2.063,3.5,4.564,4.564,0,0,1-2.734.908,4.368,4.368,0,0,1-.73-.062,3.694,3.694,0,0,1-2.491-1.559,3.269,3.269,0,0,1-.56-1.7,2.237,2.237,0,0,1,.32-1.386,1.77,1.77,0,0,1,1.465-.772,1.777,1.777,0,0,1,.983.3l.012.007a1.782,1.782,0,0,1,.624,2.174,1.106,1.106,0,0,0,.13.03,1.665,1.665,0,0,0,1.21-.294,2.342,2.342,0,0,0,.916-1.554,2.35,2.35,0,0,0-.449-1.75,3.13,3.13,0,0,0-2.348-1.382,3.476,3.476,0,0,0-2.669,1.211c-1.186,1.3-1.365,3.041-.547,5.312a28.8,28.8,0,0,0,3.4,5.99l.523.777c1.871,2.788,3.468,5.323,4.058,8.113a10.428,10.428,0,0,1-5.25,11.58c.119.072.237.147.353.221a12.5,12.5,0,0,1,5.8,11.747,10.977,10.977,0,0,1-1.049,3.878,10,10,0,0,1-3.788,4.2,10.114,10.114,0,0,1-5.3,1.5,10,10,0,0,1-2.354-.279,10.025,10.025,0,0,1-.319,5.778,10,10,0,0,1-5.1,5.666,11.048,11.048,0,0,1-3.878,1.047,12.12,12.12,0,0,1-1.238.064,12.55,12.55,0,0,1-10.51-5.86c-.075-.115-.148-.231-.22-.35a10.207,10.207,0,0,1-2.937,3.435,10.354,10.354,0,0,1-6.254,2.066,11.636,11.636,0,0,1-2.39-.254c-2.785-.589-5.321-2.185-8.111-4.055l-.773-.523c-2.426-1.649-5.746-3.905-8.536-3.905a3.942,3.942,0,0,0-2.772,1.053,3.488,3.488,0,0,0-1.208,2.668,3.126,3.126,0,0,0,1.38,2.348,2.347,2.347,0,0,0,1.417.472,2.341,2.341,0,0,0,1.889-.938,1.662,1.662,0,0,0,.3-1.205,1.18,1.18,0,0,0-.031-.134,1.756,1.756,0,0,1-.707.148,1.7,1.7,0,0,1-.331-.032,1.749,1.749,0,0,1-1.141-.752,1.775,1.775,0,0,1,.475-2.451,2.059,2.059,0,0,1,1.19-.323c.063,0,.129,0,.2.005a3.248,3.248,0,0,1,1.689.553l.005,0a3.708,3.708,0,0,1,1.561,2.5,4.6,4.6,0,0,1-.846,3.46,5.329,5.329,0,0,1-4.246,2.116A5.256,5.256,0,0,1,155.56-1846.266Zm41.716-21.566a7.087,7.087,0,0,0-4.483,1.774c-2.395,1.986-3.368,3.983-3.25,6.676a13.381,13.381,0,0,0,2.084,6.675,9.629,9.629,0,0,0,8.044,4.519c.288,0,.592-.016.93-.049a8.2,8.2,0,0,0,2.9-.773,7.135,7.135,0,0,0,3.331-9.507,5.375,5.375,0,0,0-4.816-3.059h-.049c-2.289,0-4.767,1.689-4.811,4.2a2.236,2.236,0,0,0,1.282,2.084,1.216,1.216,0,0,0,.518.116,1.223,1.223,0,0,0,.814-.311,1.91,1.91,0,0,1-.744-1.113l0-.009a1.9,1.9,0,0,1,.235-1.442,1.9,1.9,0,0,1,1.192-.866,1.923,1.923,0,0,1,1.456.234l.006,0a2.362,2.362,0,0,1,.892,1.156l0,.012a3.639,3.639,0,0,1-.088,2.907,4.191,4.191,0,0,1-3.768,2.377,4.114,4.114,0,0,1-1.772-.4,5.164,5.164,0,0,1-2.972-4.8,6.876,6.876,0,0,1,2.55-5.185,8.251,8.251,0,0,1,5.211-1.919h.075a8.492,8.492,0,0,1,1.6.17,8.533,8.533,0,0,1-.168-1.6,8.231,8.231,0,0,1,1.893-5.256,6.875,6.875,0,0,1,5.208-2.58h.1a5.156,5.156,0,0,1,4.7,2.971,4.135,4.135,0,0,1,.158,3.18,4.14,4.14,0,0,1-2.137,2.362,3.619,3.619,0,0,1-1.552.351,3.588,3.588,0,0,1-1.353-.263,2.308,2.308,0,0,1-1.172-.9,1.908,1.908,0,0,1-.236-1.444,1.9,1.9,0,0,1,.864-1.2,1.908,1.908,0,0,1,1-.284,1.923,1.923,0,0,1,1.564.8,1.2,1.2,0,0,0,.24-.4,1.208,1.208,0,0,0-.046-.928,2.211,2.211,0,0,0-2.042-1.283h-.049a3.98,3.98,0,0,0-3.019,1.544,5.243,5.243,0,0,0-1.176,3.312,5.367,5.367,0,0,0,3.059,4.82,7.055,7.055,0,0,0,3.072.7,7.168,7.168,0,0,0,3.754-1.061,7.075,7.075,0,0,0,2.678-2.97,8.1,8.1,0,0,0,.774-2.9,9.563,9.563,0,0,0-4.469-8.972,13.294,13.294,0,0,0-5.821-2.021,12.025,12.025,0,0,0-1.249-.069c-2.491,0-4.285.914-6.191,3.156a6.725,6.725,0,0,0-1.722,5.855l0,.011a1.469,1.469,0,0,1-.4,1.354,1.473,1.473,0,0,1-1.046.427,1.528,1.528,0,0,1-.286-.027l-.029-.005a5.775,5.775,0,0,0-1.263-.141Zm-2.02-4.916-.012.013a19.722,19.722,0,0,0-2.645,3.209l.041-.022a9.31,9.31,0,0,1,4.576-1.239,9.4,9.4,0,0,1,1.251-4.606A19.893,19.893,0,0,0,195.255-1872.747Zm15.732,24.129a1.739,1.739,0,0,1-.305-1.891,6.258,6.258,0,0,0,.3-4.609,1.484,1.484,0,0,1,.331-1.551l.011-.012a1.476,1.476,0,0,1,1.038-.426,1.485,1.485,0,0,1,.508.089l.012,0a5.118,5.118,0,0,0,1.805.307,6.949,6.949,0,0,0,2.8-.61,1.741,1.741,0,0,1,.713-.155,1.722,1.722,0,0,1,1.182.464,1.737,1.737,0,0,1,.5,1.717l0,.009a4.849,4.849,0,0,1-.788,1.669,8.687,8.687,0,0,1,.809,4.115,1.468,1.468,0,0,1-1.4,1.4c-.148.009-.3.014-.454.014a8.5,8.5,0,0,1-3.66-.821,4.815,4.815,0,0,1-1.67.789l-.016,0a1.915,1.915,0,0,1-.434.05A1.741,1.741,0,0,1,210.987-1848.618Zm4.211-3.248a3.859,3.859,0,0,0,1.624.689,3.776,3.776,0,0,0-.688-1.624l0,0a1.491,1.491,0,0,1-.368-1.011,9.162,9.162,0,0,1-1.528.05,8.891,8.891,0,0,1-.049,1.528h.026A1.479,1.479,0,0,1,215.2-1851.866Z" transform="translate(-153 1915)" fill="#6f69f2"/>
</svg>
