<svg xmlns="http://www.w3.org/2000/svg" width="69.801" height="69.8" viewBox="0 0 69.801 69.8">
  <path id="mendela-pattern-2" d="M212.184-1847.379c-1.912-2.1-2.339-4.781-1.272-7.96a30.257,30.257,0,0,1,3.857-6.979l0-.005.519-.763c1.694-2.527,3.135-4.805,3.617-7.078a7.418,7.418,0,0,0-4.623-8.734,5.658,5.658,0,0,0-1.8-.305,5.733,5.733,0,0,0-4.918,3.119,4.412,4.412,0,0,0,1.236,5.859,3.331,3.331,0,0,0,2.014.679,3.5,3.5,0,0,0,.493-.035,3.35,3.35,0,0,0,2.227-1.314,2.4,2.4,0,0,0,.264-2.459,1.871,1.871,0,0,0-1.3-1.1,1.286,1.286,0,0,0-.373-.021,1.7,1.7,0,0,1-.059.226,1.769,1.769,0,0,1-.881,1.03,1.745,1.745,0,0,1-.8.192,1.773,1.773,0,0,1-.555-.089l-.007,0a1.779,1.779,0,0,1-1.124-2.227l0-.006a2.2,2.2,0,0,1,.635-.908l.008-.007a4.269,4.269,0,0,1,2.9-1.159,4.212,4.212,0,0,1,.827.083,4.821,4.821,0,0,1,3.4,2.755,5.344,5.344,0,0,1-.588,5.462,6.277,6.277,0,0,1-4.171,2.462,6.3,6.3,0,0,1-.894.064,6.274,6.274,0,0,1-3.8-1.273,7.388,7.388,0,0,1-2.874-4.367,7.681,7.681,0,0,1,.8-5.22,8.854,8.854,0,0,1,.954-1.452l-.05-.005h-.016l-.037-.006h-.23l-.059-.041c-.139-.02-.28-.041-.426-.068a22.232,22.232,0,0,1-11.935-6.344,22.176,22.176,0,0,1-6.337-11.932c-.038-.211-.068-.423-.094-.6l-.007-.031-.012-.12c0-.019,0-.038-.007-.056a8.859,8.859,0,0,1-1.452.955,8,8,0,0,1-3.733.96,7.224,7.224,0,0,1-5.852-3.034,6.278,6.278,0,0,1-1.212-4.688,6.291,6.291,0,0,1,2.464-4.172,5.4,5.4,0,0,1,3.223-1.079,5.309,5.309,0,0,1,2.243.493,4.815,4.815,0,0,1,2.75,3.4,4.186,4.186,0,0,1-1.062,3.7,2.145,2.145,0,0,1-.932.664,1.79,1.79,0,0,1-.551.088,1.764,1.764,0,0,1-.8-.194,1.733,1.733,0,0,1-.882-1.03,1.77,1.77,0,0,1,.1-1.349,1.751,1.751,0,0,1,1.031-.882,1.7,1.7,0,0,1,.221-.056,1.317,1.317,0,0,0-.022-.374,1.861,1.861,0,0,0-1.092-1.3,2.4,2.4,0,0,0-1.011-.221,2.4,2.4,0,0,0-1.452.484,3.361,3.361,0,0,0-1.312,2.23,3.349,3.349,0,0,0,.644,2.5,4.208,4.208,0,0,0,3.464,1.856,5.194,5.194,0,0,0,2.4-.62,5.55,5.55,0,0,0,2.813-6.716,7.325,7.325,0,0,0-6.969-4.811,8.523,8.523,0,0,0-1.768.19c-2.275.481-4.553,1.923-7.08,3.618l-.763.517c-2.758,1.873-6.531,4.436-10.2,4.436a6.862,6.862,0,0,1-4.746-1.845,6.375,6.375,0,0,1-2.171-4.988,5.938,5.938,0,0,1,2.553-4.563,5.262,5.262,0,0,1,3.187-1.066,5.331,5.331,0,0,1,4.247,2.117,4.6,4.6,0,0,1,.845,3.458,3.708,3.708,0,0,1-1.561,2.5l-.005,0a3.238,3.238,0,0,1-1.689.554c-.068,0-.133.005-.2.005a2.057,2.057,0,0,1-1.187-.32,1.777,1.777,0,0,1-.478-2.453,1.75,1.75,0,0,1,1.14-.752,1.708,1.708,0,0,1,.332-.031,1.761,1.761,0,0,1,.707.148,1.111,1.111,0,0,0,.031-.133,1.669,1.669,0,0,0-.3-1.208,2.342,2.342,0,0,0-1.888-.936,2.347,2.347,0,0,0-1.417.473,3.124,3.124,0,0,0-1.379,2.344,3.491,3.491,0,0,0,1.208,2.671,3.945,3.945,0,0,0,2.771,1.052c2.791,0,6.11-2.256,8.534-3.9l.772-.522c2.794-1.873,5.33-3.469,8.114-4.057a11.578,11.578,0,0,1,2.39-.255,10.354,10.354,0,0,1,6.254,2.066,10.211,10.211,0,0,1,2.937,3.435q.108-.178.221-.351a12.547,12.547,0,0,1,10.509-5.859,12.085,12.085,0,0,1,1.238.064,11.059,11.059,0,0,1,3.879,1.047,10,10,0,0,1,5.1,5.666,10.027,10.027,0,0,1,.319,5.779,9.955,9.955,0,0,1,2.354-.28,10.114,10.114,0,0,1,5.3,1.5,10.008,10.008,0,0,1,3.789,4.2,10.994,10.994,0,0,1,1.048,3.876,12.5,12.5,0,0,1-5.8,11.748c-.115.075-.232.149-.351.22a10.429,10.429,0,0,1,5.25,11.58c-.59,2.791-2.187,5.324-4.057,8.112l-.521.775a28.8,28.8,0,0,0-3.4,5.992c-.818,2.271-.639,4.008.547,5.312a3.5,3.5,0,0,0,2.543,1.214l.127,0a3.133,3.133,0,0,0,2.349-1.382,2.349,2.349,0,0,0,.448-1.75,2.341,2.341,0,0,0-.916-1.554,1.674,1.674,0,0,0-.972-.313,1.452,1.452,0,0,0-.237.019.98.98,0,0,0-.133.03,1.782,1.782,0,0,1-.623,2.174l-.012.007a1.777,1.777,0,0,1-.983.3,1.772,1.772,0,0,1-1.466-.772,2.245,2.245,0,0,1-.32-1.388,3.269,3.269,0,0,1,.559-1.695,3.7,3.7,0,0,1,2.492-1.56,4.347,4.347,0,0,1,.73-.062,4.565,4.565,0,0,1,2.736.91,5.263,5.263,0,0,1,2.061,3.5,5.273,5.273,0,0,1-1.012,3.933,5.953,5.953,0,0,1-4.564,2.555h-.01c-.079,0-.168.006-.263.006A6.432,6.432,0,0,1,212.184-1847.379Zm-12.272-44.737a1.472,1.472,0,0,1,.4,1.355l0,.01a6.724,6.724,0,0,0,1.721,5.854c1.907,2.243,3.7,3.157,6.192,3.158a12.049,12.049,0,0,0,1.249-.07,13.278,13.278,0,0,0,5.819-2.021,9.563,9.563,0,0,0,4.471-8.972,8.117,8.117,0,0,0-.773-2.9,7.077,7.077,0,0,0-2.678-2.972,7.176,7.176,0,0,0-3.754-1.061,7.042,7.042,0,0,0-3.072.7,5.364,5.364,0,0,0-3.059,4.818,5.243,5.243,0,0,0,1.176,3.313,3.975,3.975,0,0,0,3.019,1.544h.049a2.211,2.211,0,0,0,2.042-1.284,1.2,1.2,0,0,0,.046-.925,1.2,1.2,0,0,0-.24-.406,1.92,1.92,0,0,1-1.564.8,1.908,1.908,0,0,1-1.005-.285,1.9,1.9,0,0,1-.863-1.2,1.906,1.906,0,0,1,.236-1.444,2.3,2.3,0,0,1,1.17-.9,3.586,3.586,0,0,1,1.355-.264,3.617,3.617,0,0,1,1.556.354,4.13,4.13,0,0,1,2.131,2.359,4.129,4.129,0,0,1-.158,3.181,5.156,5.156,0,0,1-4.7,2.97h-.1a6.875,6.875,0,0,1-5.208-2.58,8.227,8.227,0,0,1-1.893-5.256,8.524,8.524,0,0,1,.168-1.6,8.552,8.552,0,0,1-1.6.169h-.075a8.251,8.251,0,0,1-5.211-1.919,6.87,6.87,0,0,1-2.55-5.183,5.164,5.164,0,0,1,2.97-4.8,4.114,4.114,0,0,1,1.774-.4,4.189,4.189,0,0,1,3.767,2.374,3.642,3.642,0,0,1,.089,2.91l0,.012a2.37,2.37,0,0,1-.892,1.156l-.006,0a1.929,1.929,0,0,1-1.456.234,1.9,1.9,0,0,1-1.192-.867,1.9,1.9,0,0,1-.235-1.442l0-.008a1.906,1.906,0,0,1,.744-1.113,1.223,1.223,0,0,0-.814-.311,1.215,1.215,0,0,0-.518.115,2.237,2.237,0,0,0-1.282,2.083c.043,2.516,2.523,4.206,4.811,4.206h.049a5.373,5.373,0,0,0,4.816-3.06,7.134,7.134,0,0,0-3.331-9.506,8.2,8.2,0,0,0-2.905-.773c-.333-.032-.637-.049-.925-.049a9.63,9.63,0,0,0-8.045,4.519,13.4,13.4,0,0,0-2.084,6.677c-.117,2.692.856,4.689,3.252,6.675a7.087,7.087,0,0,0,4.482,1.774,5.83,5.83,0,0,0,1.274-.142l.029-.005a1.528,1.528,0,0,1,.286-.027A1.476,1.476,0,0,1,199.912-1892.116Zm-4.668,4.651.012.012a19.854,19.854,0,0,0,3.211,2.646,9.4,9.4,0,0,1-1.251-4.606,9.3,9.3,0,0,1-4.576-1.238l-.041-.023A19.77,19.77,0,0,0,195.243-1887.465Zm22.245-15.42a6.95,6.95,0,0,0-2.8-.61,5.118,5.118,0,0,0-1.805.307l-.012,0a1.488,1.488,0,0,1-.508.089,1.474,1.474,0,0,1-1.038-.426l-.011-.012a1.485,1.485,0,0,1-.333-1.548,6.253,6.253,0,0,0-.3-4.611,1.737,1.737,0,0,1,.3-1.89,1.738,1.738,0,0,1,1.283-.555,1.869,1.869,0,0,1,.434.051l.015,0a4.811,4.811,0,0,1,1.67.789,8.5,8.5,0,0,1,3.66-.82c.152,0,.305,0,.454.013a1.468,1.468,0,0,1,1.4,1.392,8.691,8.691,0,0,1-.809,4.117,4.849,4.849,0,0,1,.788,1.669l0,.009a1.737,1.737,0,0,1-.5,1.718,1.725,1.725,0,0,1-1.181.464A1.738,1.738,0,0,1,217.489-1902.884Zm-1.726-3.5a1.494,1.494,0,0,1,.368-1.011l0,0a3.851,3.851,0,0,0,.689-1.622,3.777,3.777,0,0,0-1.626.688,1.49,1.49,0,0,1-.992.371h-.02a8.891,8.891,0,0,1,.049,1.528c.154-.008.31-.012.465-.012A9.165,9.165,0,0,1,215.762-1906.385Z" transform="translate(-153 1915)" fill="#6f69f2"/>
</svg>
