<svg xmlns="http://www.w3.org/2000/svg" width="69.801" height="69.8" viewBox="0 0 69.801 69.8">
  <path id="mendela-pattern-3" d="M212.807-1847.317a4.6,4.6,0,0,1-.845-3.458,3.708,3.708,0,0,1,1.561-2.5l.005,0a3.251,3.251,0,0,1,1.69-.553c.067,0,.132-.005.2-.005a2.055,2.055,0,0,1,1.187.321,1.775,1.775,0,0,1,.478,2.453,1.745,1.745,0,0,1-1.14.752,1.706,1.706,0,0,1-.331.032,1.763,1.763,0,0,1-.708-.148,1.323,1.323,0,0,0-.031.133,1.668,1.668,0,0,0,.3,1.208,2.342,2.342,0,0,0,1.888.936,2.349,2.349,0,0,0,1.418-.473,3.126,3.126,0,0,0,1.378-2.344,3.49,3.49,0,0,0-1.208-2.671,3.94,3.94,0,0,0-2.771-1.053c-2.791,0-6.11,2.256-8.534,3.9l-.772.522c-2.794,1.873-5.33,3.469-8.113,4.057a11.585,11.585,0,0,1-2.39.255,10.359,10.359,0,0,1-6.255-2.066,10.2,10.2,0,0,1-2.936-3.435q-.109.178-.221.352a12.55,12.55,0,0,1-10.51,5.858,12.147,12.147,0,0,1-1.238-.064,11.059,11.059,0,0,1-3.879-1.047,10.005,10.005,0,0,1-5.1-5.666,10.025,10.025,0,0,1-.318-5.778,10,10,0,0,1-2.355.279,10.114,10.114,0,0,1-5.3-1.5,10.009,10.009,0,0,1-3.789-4.2,11,11,0,0,1-1.048-3.876,12.493,12.493,0,0,1,5.8-11.747c.115-.076.233-.149.352-.221a10.427,10.427,0,0,1-5.25-11.58c.59-2.79,2.186-5.324,4.056-8.112l.522-.774a28.889,28.889,0,0,0,3.4-5.993c.817-2.271.638-4.008-.548-5.311a3.5,3.5,0,0,0-2.542-1.215l-.126,0a3.131,3.131,0,0,0-2.349,1.382,2.35,2.35,0,0,0-.448,1.75,2.338,2.338,0,0,0,.916,1.554,1.671,1.671,0,0,0,.971.313,1.431,1.431,0,0,0,.237-.019.968.968,0,0,0,.133-.03,1.783,1.783,0,0,1,.624-2.174l.012-.007a1.774,1.774,0,0,1,.982-.3,1.772,1.772,0,0,1,1.466.772,2.246,2.246,0,0,1,.32,1.388,3.278,3.278,0,0,1-.56,1.695,3.694,3.694,0,0,1-2.491,1.56,4.368,4.368,0,0,1-.73.062,4.563,4.563,0,0,1-2.736-.91,5.264,5.264,0,0,1-2.062-3.5,5.27,5.27,0,0,1,1.012-3.932,5.955,5.955,0,0,1,4.563-2.556h.01c.079,0,.169-.006.264-.006a6.438,6.438,0,0,1,4.715,2.179c1.911,2.1,2.338,4.781,1.271,7.96a30.206,30.206,0,0,1-3.857,6.979l0,.005-.52.763c-1.694,2.528-3.135,4.805-3.617,7.078a7.418,7.418,0,0,0,4.623,8.734,5.657,5.657,0,0,0,1.8.305,5.732,5.732,0,0,0,4.918-3.119,4.411,4.411,0,0,0-1.235-5.859,3.332,3.332,0,0,0-2.015-.679,3.511,3.511,0,0,0-.493.036,3.346,3.346,0,0,0-2.227,1.313,2.407,2.407,0,0,0-.264,2.46,1.872,1.872,0,0,0,1.3,1.1,1.217,1.217,0,0,0,.372.022,1.85,1.85,0,0,1,.059-.226,1.771,1.771,0,0,1,.881-1.03,1.761,1.761,0,0,1,.8-.192,1.777,1.777,0,0,1,.555.089l.007,0a1.78,1.78,0,0,1,1.124,2.227l0,.006a2.2,2.2,0,0,1-.636.908l-.007.007a4.27,4.27,0,0,1-2.9,1.159,4.213,4.213,0,0,1-.828-.083,4.821,4.821,0,0,1-3.4-2.755,5.346,5.346,0,0,1,.587-5.462,6.28,6.28,0,0,1,4.172-2.462,6.315,6.315,0,0,1,.895-.063,6.273,6.273,0,0,1,3.8,1.272,7.391,7.391,0,0,1,2.874,4.367,7.68,7.68,0,0,1-.8,5.22,8.859,8.859,0,0,1-.955,1.452l.049.006h.016l.037.005h.23l.058.041c.139.02.281.041.427.068a22.238,22.238,0,0,1,11.935,6.344,22.174,22.174,0,0,1,6.336,11.932c.038.211.069.423.1.6l.006.031.012.12c0,.019.005.038.007.057a8.834,8.834,0,0,1,1.452-.955,7.987,7.987,0,0,1,3.733-.961,7.228,7.228,0,0,1,5.853,3.034,6.282,6.282,0,0,1,1.211,4.688,6.3,6.3,0,0,1-2.463,4.173,5.4,5.4,0,0,1-3.224,1.078,5.3,5.3,0,0,1-2.242-.493,4.817,4.817,0,0,1-2.751-3.4,4.186,4.186,0,0,1,1.062-3.7,2.148,2.148,0,0,1,.933-.664,1.783,1.783,0,0,1,.55-.087,1.765,1.765,0,0,1,.8.193,1.736,1.736,0,0,1,.882,1.03,1.766,1.766,0,0,1-.1,1.349,1.749,1.749,0,0,1-1.031.882,1.836,1.836,0,0,1-.22.057,1.313,1.313,0,0,0,.022.373,1.869,1.869,0,0,0,1.092,1.3,2.413,2.413,0,0,0,1.012.221,2.4,2.4,0,0,0,1.451-.485,3.366,3.366,0,0,0,1.313-2.23,3.349,3.349,0,0,0-.645-2.5,4.209,4.209,0,0,0-3.463-1.856,5.2,5.2,0,0,0-2.4.62,5.551,5.551,0,0,0-2.812,6.716,7.325,7.325,0,0,0,6.97,4.811,8.609,8.609,0,0,0,1.768-.189c2.275-.482,4.552-1.924,7.079-3.619l.764-.517c2.757-1.873,6.53-4.436,10.2-4.436a6.867,6.867,0,0,1,4.746,1.845,6.375,6.375,0,0,1,2.17,4.989,5.938,5.938,0,0,1-2.553,4.562,5.254,5.254,0,0,1-3.187,1.066A5.331,5.331,0,0,1,212.807-1847.317Zm-43.838-11.2a7.133,7.133,0,0,0,3.33,9.506,8.2,8.2,0,0,0,2.905.773c.334.032.638.049.925.049a9.63,9.63,0,0,0,8.045-4.519,13.382,13.382,0,0,0,2.084-6.677c.117-2.692-.855-4.688-3.252-6.675a7.082,7.082,0,0,0-4.481-1.773,5.837,5.837,0,0,0-1.275.141l-.028.005a1.528,1.528,0,0,1-.286.027,1.473,1.473,0,0,1-1.047-.427,1.468,1.468,0,0,1-.4-1.354l0-.011a6.721,6.721,0,0,0-1.72-5.854c-1.908-2.243-3.7-3.157-6.192-3.157a12.025,12.025,0,0,0-1.249.069,13.289,13.289,0,0,0-5.82,2.021,9.564,9.564,0,0,0-4.47,8.972,8.1,8.1,0,0,0,.772,2.9,7.073,7.073,0,0,0,2.679,2.972,7.167,7.167,0,0,0,3.753,1.061,7.052,7.052,0,0,0,3.072-.7,5.367,5.367,0,0,0,3.06-4.819,5.249,5.249,0,0,0-1.176-3.313,3.982,3.982,0,0,0-3.02-1.544h-.049a2.211,2.211,0,0,0-2.042,1.285,1.2,1.2,0,0,0-.046.925,1.24,1.24,0,0,0,.24.405,1.924,1.924,0,0,1,1.565-.8,1.909,1.909,0,0,1,1.005.285,1.9,1.9,0,0,1,.863,1.2,1.908,1.908,0,0,1-.236,1.444,2.309,2.309,0,0,1-1.17.9,3.6,3.6,0,0,1-1.355.264,3.614,3.614,0,0,1-1.555-.354,4.128,4.128,0,0,1-2.132-2.359,4.125,4.125,0,0,1,.159-3.181,5.154,5.154,0,0,1,4.7-2.97h.1a6.871,6.871,0,0,1,5.207,2.58,8.226,8.226,0,0,1,1.893,5.256,8.531,8.531,0,0,1-.167,1.6,8.492,8.492,0,0,1,1.6-.17h.074a8.25,8.25,0,0,1,5.211,1.919,6.87,6.87,0,0,1,2.55,5.184,5.162,5.162,0,0,1-2.969,4.8,4.118,4.118,0,0,1-1.775.4,4.191,4.191,0,0,1-3.767-2.375,3.639,3.639,0,0,1-.088-2.909l0-.012a2.362,2.362,0,0,1,.892-1.156l.005,0a1.929,1.929,0,0,1,1.456-.235,1.9,1.9,0,0,1,1.192.867,1.9,1.9,0,0,1,.235,1.442l0,.009a1.914,1.914,0,0,1-.744,1.112,1.219,1.219,0,0,0,.814.312,1.219,1.219,0,0,0,.518-.116,2.235,2.235,0,0,0,1.281-2.083c-.043-2.516-2.523-4.206-4.811-4.206h-.049A5.373,5.373,0,0,0,168.969-1858.514Zm9.617-12.272a9.316,9.316,0,0,1,4.575,1.238l.041.023a19.716,19.716,0,0,0-2.644-3.209l-.012-.013a19.931,19.931,0,0,0-3.211-2.646A9.422,9.422,0,0,1,178.586-1870.787ZM163.1-1848.115l-.015,0a4.807,4.807,0,0,1-1.669-.789,8.5,8.5,0,0,1-3.661.821c-.152,0-.3,0-.454-.014a1.467,1.467,0,0,1-1.4-1.392,8.691,8.691,0,0,1,.808-4.117,4.865,4.865,0,0,1-.788-1.669l0-.009a1.737,1.737,0,0,1,.5-1.718,1.727,1.727,0,0,1,1.181-.464,1.738,1.738,0,0,1,.713.155,6.955,6.955,0,0,0,2.8.61,5.111,5.111,0,0,0,1.805-.307l.012,0a1.493,1.493,0,0,1,.508-.089,1.473,1.473,0,0,1,1.038.426l.012.012a1.482,1.482,0,0,1,.332,1.548,6.262,6.262,0,0,0,.3,4.611,1.738,1.738,0,0,1-.3,1.89,1.742,1.742,0,0,1-1.284.555A1.921,1.921,0,0,1,163.1-1848.115Zm-3.427-4.69,0,0a3.834,3.834,0,0,0-.689,1.622,3.789,3.789,0,0,0,1.625-.688,1.491,1.491,0,0,1,.992-.371h.02a9.075,9.075,0,0,1-.049-1.528c-.154.008-.309.012-.464.012a9.169,9.169,0,0,1-1.064-.061A1.49,1.49,0,0,1,159.67-1852.8Z" transform="translate(-153 1915)" fill="#6f69f2"/>
</svg>
