<svg xmlns="http://www.w3.org/2000/svg" width="46.591" height="46.691" viewBox="0 0 46.591 46.691">
  <g id="pin-4" transform="matrix(0.985, 0.174, -0.174, 0.985, 14150.176, 19080.719)">
    <path id="Subtraction_27" data-name="Subtraction 27" d="M-576.49,53.41h0l-4.984-.789,6.1-16.316,9.862,10.094L-576.49,53.41Z" transform="translate(-16658.527 -16345.223)" fill="#434244" stroke="rgba(0,0,0,0)" stroke-miterlimit="10" stroke-width="1"/>
    <path id="Path_31247" data-name="Path 31247" d="M45.435,22.109l5.8-10.728C46.017.053,37.253,0,37.253,0L29.292,5.725l-.858.576a26.08,26.08,0,0,0-15.865,5.253C8.9,15.219,12.03,24.286,19.551,31.806S36.139,42.453,39.8,38.788a20.675,20.675,0,0,0,5.581-12.8l0-.005h0a22.044,22.044,0,0,0,.05-3.875" transform="translate(-17252.676 -16334.903)" fill="#6f69f2"/>
  </g>
</svg>
