<svg xmlns="http://www.w3.org/2000/svg" width="40.199" height="43.612" viewBox="0 0 40.199 43.612">
  <g id="pin-2" transform="translate(0)">
    <path id="Subtraction_27" data-name="Subtraction 27" d="M4.985,0h0L0,.789,6.1,17.106,15.96,7.011,4.985,0Z" transform="translate(38.561 43.091) rotate(180)" fill="#434244" stroke="rgba(0,0,0,0)" stroke-miterlimit="10" stroke-width="1"/>
    <path id="Path_31247" data-name="Path 31247" d="M16.835,22.109l-5.8-10.728C16.253.053,25.016,0,25.016,0l7.962,5.726.858.576A26.08,26.08,0,0,1,49.7,11.554c3.665,3.665.539,12.732-6.982,20.252S26.131,42.453,22.467,38.788a20.675,20.675,0,0,1-5.581-12.8l0-.005h0a22.044,22.044,0,0,1-.05-3.875" transform="translate(-11.035 0.001)" fill="#ef4e9e"/>
  </g>
</svg>
