<svg xmlns="http://www.w3.org/2000/svg" xmlns:xlink="http://www.w3.org/1999/xlink" width="260.657" height="296.776" viewBox="0 0 260.657 296.776">
  <defs>
    <clipPath id="clip-path">
      <path id="Polygon_24" data-name="Polygon 24" d="M127.5,0,255,127.5,127.5,255,0,127.5Z" transform="translate(468 3262.053)" fill="#fff"/>
    </clipPath>
    <clipPath id="clip-path-2">
      <rect width="328.477" height="229" fill="none"/>
    </clipPath>
    <clipPath id="clip-path-3">
      <path id="Path_1818" data-name="Path 1818" d="M215.482-17.383,228.653,99.381,255,127.5,127.5,255,0,127.5,50.242-17.383,127.5-39.33Z" transform="translate(573 3262)" fill="#fff" stroke="#707070" stroke-width="1"/>
    </clipPath>
  </defs>
  <g id="plygon" transform="translate(-947.826 -3122.053)">
    <g id="Polygon_17" data-name="Polygon 17" transform="translate(950.655 3161)" fill="none">
      <path d="M127.5,0,255,127.5,127.5,255,0,127.5Z" stroke="none"/>
      <path d="M 127.5 0 L 0 127.5 L 127.5 255 L 255 127.5 L 127.5 0 M 127.5 -2.82843017578125 L 257.8284301757812 127.5 L 127.5 257.8284301757812 L -2.82843017578125 127.5 L 127.5 -2.82843017578125 Z" stroke="none" fill="#a7a4fe"/>
    </g>
    <g id="Mask_Group_27" data-name="Mask Group 27" transform="translate(482.654 -100.999)" clip-path="url(#clip-path)">
      <g id="Repeat_Grid_15" data-name="Repeat Grid 15" transform="translate(431.297 3262.053)" clip-path="url(#clip-path-2)">
        <g transform="translate(-310.296 -217.133)">
          <path id="Path_31232" data-name="Path 31232" d="M15282,465c9.633,0,9.633,8.066,19.266,8.066s9.633-8.066,19.264-8.066,9.635,8.066,19.268,8.066,9.631-8.066,19.264-8.066,9.633,8.066,19.266,8.066c9.32,0,9.625-7.55,18.357-8.04V465c.156,0,.307,0,.453.007s.3-.007.457-.007c9.477,0,9.629,7.809,18.813,8.059,9.18-.25,9.332-8.059,18.807-8.059,9.633,0,9.633,8.066,19.266,8.066s9.633-8.066,19.266-8.066,9.633,8.066,19.268,8.066c9.59,0,9.633-7.994,19.139-8.064v0a.569.569,0,0,1,.064,0,.535.535,0,0,1,.063,0c9.613,0,9.637,8.028,19.2,8.066,9.566-.039,9.59-8.066,19.2-8.066,9.631,0,9.631,8.066,19.264,8.066s9.633-8.066,19.266-8.066,9.635,8.066,19.266,8.066" transform="translate(-14970.703 -246.865)" fill="none" stroke="#a7a4fe" stroke-linecap="round" stroke-width="2"/>
        </g>
        <g transform="translate(-310.296 -200.133)">
          <path id="Path_31233" data-name="Path 31233" d="M15282,465c9.633,0,9.633,8.066,19.266,8.066s9.633-8.066,19.264-8.066,9.635,8.066,19.268,8.066,9.631-8.066,19.264-8.066,9.633,8.066,19.266,8.066c9.32,0,9.625-7.55,18.357-8.04V465c.156,0,.307,0,.453.007s.3-.007.457-.007c9.477,0,9.629,7.809,18.813,8.059,9.18-.25,9.332-8.059,18.807-8.059,9.633,0,9.633,8.066,19.266,8.066s9.633-8.066,19.266-8.066,9.633,8.066,19.268,8.066c9.59,0,9.633-7.994,19.139-8.064v0a.569.569,0,0,1,.064,0,.535.535,0,0,1,.063,0c9.613,0,9.637,8.028,19.2,8.066,9.566-.039,9.59-8.066,19.2-8.066,9.631,0,9.631,8.066,19.264,8.066s9.633-8.066,19.266-8.066,9.635,8.066,19.266,8.066" transform="translate(-14970.703 -246.865)" fill="none" stroke="#a7a4fe" stroke-linecap="round" stroke-width="2"/>
        </g>
        <g transform="translate(-310.296 -183.133)">
          <path id="Path_31234" data-name="Path 31234" d="M15282,465c9.633,0,9.633,8.066,19.266,8.066s9.633-8.066,19.264-8.066,9.635,8.066,19.268,8.066,9.631-8.066,19.264-8.066,9.633,8.066,19.266,8.066c9.32,0,9.625-7.55,18.357-8.04V465c.156,0,.307,0,.453.007s.3-.007.457-.007c9.477,0,9.629,7.809,18.813,8.059,9.18-.25,9.332-8.059,18.807-8.059,9.633,0,9.633,8.066,19.266,8.066s9.633-8.066,19.266-8.066,9.633,8.066,19.268,8.066c9.59,0,9.633-7.994,19.139-8.064v0a.569.569,0,0,1,.064,0,.535.535,0,0,1,.063,0c9.613,0,9.637,8.028,19.2,8.066,9.566-.039,9.59-8.066,19.2-8.066,9.631,0,9.631,8.066,19.264,8.066s9.633-8.066,19.266-8.066,9.635,8.066,19.266,8.066" transform="translate(-14970.703 -246.865)" fill="none" stroke="#a7a4fe" stroke-linecap="round" stroke-width="2"/>
        </g>
        <g transform="translate(-310.296 -166.133)">
          <path id="Path_31235" data-name="Path 31235" d="M15282,465c9.633,0,9.633,8.066,19.266,8.066s9.633-8.066,19.264-8.066,9.635,8.066,19.268,8.066,9.631-8.066,19.264-8.066,9.633,8.066,19.266,8.066c9.32,0,9.625-7.55,18.357-8.04V465c.156,0,.307,0,.453.007s.3-.007.457-.007c9.477,0,9.629,7.809,18.813,8.059,9.18-.25,9.332-8.059,18.807-8.059,9.633,0,9.633,8.066,19.266,8.066s9.633-8.066,19.266-8.066,9.633,8.066,19.268,8.066c9.59,0,9.633-7.994,19.139-8.064v0a.569.569,0,0,1,.064,0,.535.535,0,0,1,.063,0c9.613,0,9.637,8.028,19.2,8.066,9.566-.039,9.59-8.066,19.2-8.066,9.631,0,9.631,8.066,19.264,8.066s9.633-8.066,19.266-8.066,9.635,8.066,19.266,8.066" transform="translate(-14970.703 -246.865)" fill="none" stroke="#a7a4fe" stroke-linecap="round" stroke-width="2"/>
        </g>
        <g transform="translate(-310.296 -149.133)">
          <path id="Path_31236" data-name="Path 31236" d="M15282,465c9.633,0,9.633,8.066,19.266,8.066s9.633-8.066,19.264-8.066,9.635,8.066,19.268,8.066,9.631-8.066,19.264-8.066,9.633,8.066,19.266,8.066c9.32,0,9.625-7.55,18.357-8.04V465c.156,0,.307,0,.453.007s.3-.007.457-.007c9.477,0,9.629,7.809,18.813,8.059,9.18-.25,9.332-8.059,18.807-8.059,9.633,0,9.633,8.066,19.266,8.066s9.633-8.066,19.266-8.066,9.633,8.066,19.268,8.066c9.59,0,9.633-7.994,19.139-8.064v0a.569.569,0,0,1,.064,0,.535.535,0,0,1,.063,0c9.613,0,9.637,8.028,19.2,8.066,9.566-.039,9.59-8.066,19.2-8.066,9.631,0,9.631,8.066,19.264,8.066s9.633-8.066,19.266-8.066,9.635,8.066,19.266,8.066" transform="translate(-14970.703 -246.865)" fill="none" stroke="#a7a4fe" stroke-linecap="round" stroke-width="2"/>
        </g>
        <g transform="translate(-310.296 -132.133)">
          <path id="Path_31237" data-name="Path 31237" d="M15282,465c9.633,0,9.633,8.066,19.266,8.066s9.633-8.066,19.264-8.066,9.635,8.066,19.268,8.066,9.631-8.066,19.264-8.066,9.633,8.066,19.266,8.066c9.32,0,9.625-7.55,18.357-8.04V465c.156,0,.307,0,.453.007s.3-.007.457-.007c9.477,0,9.629,7.809,18.813,8.059,9.18-.25,9.332-8.059,18.807-8.059,9.633,0,9.633,8.066,19.266,8.066s9.633-8.066,19.266-8.066,9.633,8.066,19.268,8.066c9.59,0,9.633-7.994,19.139-8.064v0a.569.569,0,0,1,.064,0,.535.535,0,0,1,.063,0c9.613,0,9.637,8.028,19.2,8.066,9.566-.039,9.59-8.066,19.2-8.066,9.631,0,9.631,8.066,19.264,8.066s9.633-8.066,19.266-8.066,9.635,8.066,19.266,8.066" transform="translate(-14970.703 -246.865)" fill="none" stroke="#a7a4fe" stroke-linecap="round" stroke-width="2"/>
        </g>
        <g transform="translate(-310.296 -115.133)">
          <path id="Path_31238" data-name="Path 31238" d="M15282,465c9.633,0,9.633,8.066,19.266,8.066s9.633-8.066,19.264-8.066,9.635,8.066,19.268,8.066,9.631-8.066,19.264-8.066,9.633,8.066,19.266,8.066c9.32,0,9.625-7.55,18.357-8.04V465c.156,0,.307,0,.453.007s.3-.007.457-.007c9.477,0,9.629,7.809,18.813,8.059,9.18-.25,9.332-8.059,18.807-8.059,9.633,0,9.633,8.066,19.266,8.066s9.633-8.066,19.266-8.066,9.633,8.066,19.268,8.066c9.59,0,9.633-7.994,19.139-8.064v0a.569.569,0,0,1,.064,0,.535.535,0,0,1,.063,0c9.613,0,9.637,8.028,19.2,8.066,9.566-.039,9.59-8.066,19.2-8.066,9.631,0,9.631,8.066,19.264,8.066s9.633-8.066,19.266-8.066,9.635,8.066,19.266,8.066" transform="translate(-14970.703 -246.865)" fill="none" stroke="#a7a4fe" stroke-linecap="round" stroke-width="2"/>
        </g>
        <g transform="translate(-310.296 -98.133)">
          <path id="Path_31239" data-name="Path 31239" d="M15282,465c9.633,0,9.633,8.066,19.266,8.066s9.633-8.066,19.264-8.066,9.635,8.066,19.268,8.066,9.631-8.066,19.264-8.066,9.633,8.066,19.266,8.066c9.32,0,9.625-7.55,18.357-8.04V465c.156,0,.307,0,.453.007s.3-.007.457-.007c9.477,0,9.629,7.809,18.813,8.059,9.18-.25,9.332-8.059,18.807-8.059,9.633,0,9.633,8.066,19.266,8.066s9.633-8.066,19.266-8.066,9.633,8.066,19.268,8.066c9.59,0,9.633-7.994,19.139-8.064v0a.569.569,0,0,1,.064,0,.535.535,0,0,1,.063,0c9.613,0,9.637,8.028,19.2,8.066,9.566-.039,9.59-8.066,19.2-8.066,9.631,0,9.631,8.066,19.264,8.066s9.633-8.066,19.266-8.066,9.635,8.066,19.266,8.066" transform="translate(-14970.703 -246.865)" fill="none" stroke="#a7a4fe" stroke-linecap="round" stroke-width="2"/>
        </g>
        <g transform="translate(-310.296 -81.133)">
          <path id="Path_31240" data-name="Path 31240" d="M15282,465c9.633,0,9.633,8.066,19.266,8.066s9.633-8.066,19.264-8.066,9.635,8.066,19.268,8.066,9.631-8.066,19.264-8.066,9.633,8.066,19.266,8.066c9.32,0,9.625-7.55,18.357-8.04V465c.156,0,.307,0,.453.007s.3-.007.457-.007c9.477,0,9.629,7.809,18.813,8.059,9.18-.25,9.332-8.059,18.807-8.059,9.633,0,9.633,8.066,19.266,8.066s9.633-8.066,19.266-8.066,9.633,8.066,19.268,8.066c9.59,0,9.633-7.994,19.139-8.064v0a.569.569,0,0,1,.064,0,.535.535,0,0,1,.063,0c9.613,0,9.637,8.028,19.2,8.066,9.566-.039,9.59-8.066,19.2-8.066,9.631,0,9.631,8.066,19.264,8.066s9.633-8.066,19.266-8.066,9.635,8.066,19.266,8.066" transform="translate(-14970.703 -246.865)" fill="none" stroke="#a7a4fe" stroke-linecap="round" stroke-width="2"/>
        </g>
        <g transform="translate(-310.296 -64.133)">
          <path id="Path_31241" data-name="Path 31241" d="M15282,465c9.633,0,9.633,8.066,19.266,8.066s9.633-8.066,19.264-8.066,9.635,8.066,19.268,8.066,9.631-8.066,19.264-8.066,9.633,8.066,19.266,8.066c9.32,0,9.625-7.55,18.357-8.04V465c.156,0,.307,0,.453.007s.3-.007.457-.007c9.477,0,9.629,7.809,18.813,8.059,9.18-.25,9.332-8.059,18.807-8.059,9.633,0,9.633,8.066,19.266,8.066s9.633-8.066,19.266-8.066,9.633,8.066,19.268,8.066c9.59,0,9.633-7.994,19.139-8.064v0a.569.569,0,0,1,.064,0,.535.535,0,0,1,.063,0c9.613,0,9.637,8.028,19.2,8.066,9.566-.039,9.59-8.066,19.2-8.066,9.631,0,9.631,8.066,19.264,8.066s9.633-8.066,19.266-8.066,9.635,8.066,19.266,8.066" transform="translate(-14970.703 -246.865)" fill="none" stroke="#a7a4fe" stroke-linecap="round" stroke-width="2"/>
        </g>
        <g transform="translate(-310.296 -47.133)">
          <path id="Path_31242" data-name="Path 31242" d="M15282,465c9.633,0,9.633,8.066,19.266,8.066s9.633-8.066,19.264-8.066,9.635,8.066,19.268,8.066,9.631-8.066,19.264-8.066,9.633,8.066,19.266,8.066c9.32,0,9.625-7.55,18.357-8.04V465c.156,0,.307,0,.453.007s.3-.007.457-.007c9.477,0,9.629,7.809,18.813,8.059,9.18-.25,9.332-8.059,18.807-8.059,9.633,0,9.633,8.066,19.266,8.066s9.633-8.066,19.266-8.066,9.633,8.066,19.268,8.066c9.59,0,9.633-7.994,19.139-8.064v0a.569.569,0,0,1,.064,0,.535.535,0,0,1,.063,0c9.613,0,9.637,8.028,19.2,8.066,9.566-.039,9.59-8.066,19.2-8.066,9.631,0,9.631,8.066,19.264,8.066s9.633-8.066,19.266-8.066,9.635,8.066,19.266,8.066" transform="translate(-14970.703 -246.865)" fill="none" stroke="#a7a4fe" stroke-linecap="round" stroke-width="2"/>
        </g>
        <g transform="translate(-310.296 -30.133)">
          <path id="Path_31243" data-name="Path 31243" d="M15282,465c9.633,0,9.633,8.066,19.266,8.066s9.633-8.066,19.264-8.066,9.635,8.066,19.268,8.066,9.631-8.066,19.264-8.066,9.633,8.066,19.266,8.066c9.32,0,9.625-7.55,18.357-8.04V465c.156,0,.307,0,.453.007s.3-.007.457-.007c9.477,0,9.629,7.809,18.813,8.059,9.18-.25,9.332-8.059,18.807-8.059,9.633,0,9.633,8.066,19.266,8.066s9.633-8.066,19.266-8.066,9.633,8.066,19.268,8.066c9.59,0,9.633-7.994,19.139-8.064v0a.569.569,0,0,1,.064,0,.535.535,0,0,1,.063,0c9.613,0,9.637,8.028,19.2,8.066,9.566-.039,9.59-8.066,19.2-8.066,9.631,0,9.631,8.066,19.264,8.066s9.633-8.066,19.266-8.066,9.635,8.066,19.266,8.066" transform="translate(-14970.703 -246.865)" fill="none" stroke="#a7a4fe" stroke-linecap="round" stroke-width="2"/>
        </g>
        <g transform="translate(-310.296 -13.133)">
          <path id="Path_31244" data-name="Path 31244" d="M15282,465c9.633,0,9.633,8.066,19.266,8.066s9.633-8.066,19.264-8.066,9.635,8.066,19.268,8.066,9.631-8.066,19.264-8.066,9.633,8.066,19.266,8.066c9.32,0,9.625-7.55,18.357-8.04V465c.156,0,.307,0,.453.007s.3-.007.457-.007c9.477,0,9.629,7.809,18.813,8.059,9.18-.25,9.332-8.059,18.807-8.059,9.633,0,9.633,8.066,19.266,8.066s9.633-8.066,19.266-8.066,9.633,8.066,19.268,8.066c9.59,0,9.633-7.994,19.139-8.064v0a.569.569,0,0,1,.064,0,.535.535,0,0,1,.063,0c9.613,0,9.637,8.028,19.2,8.066,9.566-.039,9.59-8.066,19.2-8.066,9.631,0,9.631,8.066,19.264,8.066s9.633-8.066,19.266-8.066,9.635,8.066,19.266,8.066" transform="translate(-14970.703 -246.865)" fill="none" stroke="#a7a4fe" stroke-linecap="round" stroke-width="2"/>
        </g>
        <g transform="translate(-310.296 3.867)">
          <path id="Path_31245" data-name="Path 31245" d="M15282,465c9.633,0,9.633,8.066,19.266,8.066s9.633-8.066,19.264-8.066,9.635,8.066,19.268,8.066,9.631-8.066,19.264-8.066,9.633,8.066,19.266,8.066c9.32,0,9.625-7.55,18.357-8.04V465c.156,0,.307,0,.453.007s.3-.007.457-.007c9.477,0,9.629,7.809,18.813,8.059,9.18-.25,9.332-8.059,18.807-8.059,9.633,0,9.633,8.066,19.266,8.066s9.633-8.066,19.266-8.066,9.633,8.066,19.268,8.066c9.59,0,9.633-7.994,19.139-8.064v0a.569.569,0,0,1,.064,0,.535.535,0,0,1,.063,0c9.613,0,9.637,8.028,19.2,8.066,9.566-.039,9.59-8.066,19.2-8.066,9.631,0,9.631,8.066,19.264,8.066s9.633-8.066,19.266-8.066,9.635,8.066,19.266,8.066" transform="translate(-14970.703 -246.865)" fill="none" stroke="#a7a4fe" stroke-linecap="round" stroke-width="2"/>
        </g>
      </g>
    </g>
  </g>
</svg>
