<svg xmlns="http://www.w3.org/2000/svg" width="660.832" height="237.674" viewBox="0 0 660.832 237.674">
  <g id="title-arc" transform="translate(-519.711 -11272.96)">
    <text id="C" transform="matrix(0.727, -0.687, 0.687, 0.727, 605.169, 11494.646)" fill="#ef4e9e" font-size="109" font-family="Cubano-Regular, Cubano"><tspan x="0" y="0">C</tspan></text>
    <text id="A" transform="matrix(0.89, -0.456, 0.456, 0.89, 656.664, 11449.766)" fill="#ef4e9e" font-size="111" font-family="Cubano-Regular, Cubano"><tspan x="0" y="0">A</tspan></text>
    <text id="M" transform="matrix(0.975, -0.221, 0.221, 0.975, 719.691, 11416.601)" fill="#ef4e9e" font-size="111" font-family="Cubano-Regular, Cubano"><tspan x="0" y="0">M</tspan></text>
    <text id="P" transform="matrix(1, -0.014, 0.014, 1, 813.943, 11398.201)" fill="#ef4e9e" font-size="112" font-family="Cubano-Regular, Cubano"><tspan x="0" y="0">P</tspan></text>
    <text id="_" data-name=" " transform="translate(884.525 11394.501) rotate(6.86)" fill="#ef4e9e" font-size="108" font-family="Cubano-Regular, Cubano"><tspan x="0" y="0"> </tspan></text>
    <text id="F" transform="matrix(0.966, 0.259, -0.259, 0.966, 922.843, 11403.305)" fill="#ef4e9e" font-size="113" font-family="Cubano-Regular, Cubano"><tspan x="0" y="0">F</tspan></text>
    <text id="F-2" data-name="F" transform="matrix(0.892, 0.453, -0.453, 0.892, 988.09, 11420.849)" fill="#ef4e9e" font-size="113" font-family="Cubano-Regular, Cubano"><tspan x="0" y="0">F</tspan></text>
    <text id="F-3" data-name="F" transform="matrix(0.738, 0.675, -0.675, 0.738, 1047.729, 11450.894)" fill="#ef4e9e" font-size="113" font-family="Cubano-Regular, Cubano"><tspan x="0" y="0">F</tspan></text>
    <text id="C-2" data-name="C" transform="matrix(0.727, -0.687, 0.687, 0.727, 600.847, 11491.079)" fill="#f79bc5" stroke="#ef4e9e" stroke-width="2" font-size="114" font-family="Cubano-Regular, Cubano"><tspan x="0" y="0">C</tspan></text>
    <text id="A-2" data-name="A" transform="matrix(0.89, -0.456, 0.456, 0.89, 652.093, 11443.689)" fill="#f79bc5" stroke="#ef4e9e" stroke-width="2" font-size="114" font-family="Cubano-Regular, Cubano"><tspan x="0" y="0">A</tspan></text>
    <text id="M-2" data-name="M" transform="matrix(0.975, -0.221, 0.221, 0.975, 716.552, 11409.758)" fill="#f79bc5" stroke="#ef4e9e" stroke-width="2" font-size="114" font-family="Cubano-Regular, Cubano"><tspan x="0" y="0">M</tspan></text>
    <text id="P-2" data-name="P" transform="matrix(1, -0.014, 0.014, 1, 812.98, 11389.902)" fill="#f79bc5" stroke="#ef4e9e" stroke-width="2" font-size="114" font-family="Cubano-Regular, Cubano"><tspan x="0" y="0">P</tspan></text>
    <text id="_2" data-name=" " transform="translate(885.217 11387.207) rotate(6.86)" fill="#f79bc5" stroke="#ef4e9e" stroke-width="2" font-size="111" font-family="Cubano-Regular, Cubano"><tspan x="0" y="0"> </tspan></text>
    <text id="F-4" data-name="F" transform="matrix(0.966, 0.259, -0.259, 0.966, 924.686, 11395.128)" fill="#f79bc5" stroke="#ef4e9e" stroke-width="2" font-size="115" font-family="Cubano-Regular, Cubano"><tspan x="0" y="0">F</tspan></text>
    <text id="F-5" data-name="F" transform="matrix(0.892, 0.453, -0.453, 0.892, 991.635, 11413.146)" fill="#f79bc5" stroke="#ef4e9e" stroke-width="2" font-size="115" font-family="Cubano-Regular, Cubano"><tspan x="0" y="0">F</tspan></text>
    <text id="F-6" data-name="F" transform="matrix(0.738, 0.675, -0.675, 0.738, 1052.863, 11444.021)" fill="#f79bc5" stroke="#ef4e9e" stroke-width="2" font-size="115" font-family="Cubano-Regular, Cubano"><tspan x="0" y="0">F</tspan></text>
  </g>
</svg>
