<svg xmlns="http://www.w3.org/2000/svg" xmlns:xlink="http://www.w3.org/1999/xlink" width="1551" height="57" viewBox="0 0 1551 57">
  <defs>
    <clipPath id="clip-path">
      <rect id="Rectangle_925" data-name="Rectangle 925" width="1551" height="57" transform="translate(9 943)" fill="none"/>
    </clipPath>
  </defs>
  <g id="wave-fill-pattern-1" transform="translate(-9 -943)" clip-path="url(#clip-path)">
    <path id="Path_2609" data-name="Path 2609" d="M15282,522.007V465c16.863,0,16.863,14.121,33.723,14.121S15332.589,465,15349.449,465s16.863,14.121,33.727,14.121S15400.036,465,15416.9,465s16.863,14.121,33.723,14.121c16.316,0,16.848-13.216,32.136-14.074V465c.272,0,.536,0,.795.013.263-.008.525-.013.8-.013,16.592,0,16.855,13.67,32.929,14.108,16.074-.437,16.338-14.108,32.926-14.108,16.863,0,16.863,14.121,33.723,14.121S15600.795,465,15617.656,465s16.863,14.121,33.728,14.121c16.788,0,16.863-13.993,33.5-14.116v0a1.02,1.02,0,0,1,.113,0,.952.952,0,0,1,.111,0c16.826,0,16.868,14.053,33.614,14.121,16.745-.068,16.787-14.121,33.613-14.121,16.859,0,16.859,14.121,33.723,14.121S15802.921,465,15819.787,465s16.863,14.121,33.722,14.121c16.788,0,16.859-13.993,33.5-14.116v0a1.011,1.011,0,0,1,.113,0,1.055,1.055,0,0,1,.115,0c16.826,0,16.864,14.057,33.614,14.121,16.746-.064,16.783-14.121,33.609-14.121,16.863,0,16.863,14.121,33.723,14.121S16005.043,465,16021.908,465s16.863,14.121,33.727,14.121c16.785,0,16.857-13.993,33.5-14.116v0a1.064,1.064,0,0,1,.117,0,.91.91,0,0,1,.109,0c16.826,0,16.865,14.057,33.613,14.121,16.75-.064,16.787-14.121,33.609-14.121,16.863,0,16.863,14.121,33.725,14.121S16207.17,465,16224.033,465s16.861,14.121,33.725,14.121c16.316,0,16.848-13.216,32.141-14.074V465c.268,0,.529,0,.795.013.258-.008.525-.013.793-.013,16.592,0,16.859,13.67,32.934,14.108,16.07-.437,16.334-14.108,32.928-14.108,16.861,0,16.861,14.121,33.723,14.121S16407.932,465,16424.795,465s16.861,14.121,33.727,14.121c16.783,0,16.861-13.993,33.5-14.116v0a.994.994,0,0,1,.113,0,.977.977,0,0,1,.111,0c16.828,0,16.869,14.053,33.617,14.121,16.74-.068,16.783-14.121,33.6-14.121,16.867,0,16.867,14.121,33.725,14.121S16610.057,465,16626.92,465s16.859,14.121,33.719,14.121c16.793,0,16.867-13.993,33.512-14.116v0a.96.96,0,0,1,.109,0,.977.977,0,0,1,.111,0c16.826,0,16.867,14.057,33.615,14.121,16.742-.064,16.781-14.121,33.613-14.121,16.859,0,16.859,14.121,33.723,14.121S16812.178,465,16829.043,465s16.861,14.121,33.725,14.121S16879.639,465,16896.494,465s16.869,14.121,33.732,14.121v42.888" transform="translate(-15306.502 478.002)" fill="#fff"/>
  </g>
</svg>
