<svg xmlns="http://www.w3.org/2000/svg" width="1654.223" height="20.121" viewBox="0 0 1654.223 20.121">
  <path id="wave-line-2" d="M15282,521.96v.047c16.863,0,16.863-14.121,33.723-14.121s16.864,14.121,33.725,14.121,16.863-14.121,33.727-14.121,16.86,14.121,33.726,14.121,16.863-14.121,33.723-14.121c16.316,0,16.848,13.216,32.136,14.074v.047c.272,0,.536,0,.795-.013.263.008.525.013.8.013,16.592,0,16.855-13.67,32.929-14.108,16.074.437,16.338,14.108,32.926,14.108,16.863,0,16.863-14.121,33.723-14.121s16.864,14.121,33.726,14.121,16.863-14.121,33.728-14.121c16.788,0,16.863,13.993,33.5,14.116v0a1.013,1.013,0,0,0,.113,0,.945.945,0,0,0,.111,0c16.826,0,16.868-14.053,33.614-14.121,16.745.068,16.787,14.121,33.613,14.121,16.859,0,16.859-14.121,33.723-14.121s16.859,14.121,33.726,14.121,16.863-14.121,33.722-14.121c16.788,0,16.859,13.993,33.5,14.116v0a1,1,0,0,0,.113,0,1.048,1.048,0,0,0,.115,0c16.826,0,16.864-14.057,33.614-14.121,16.746.064,16.783,14.121,33.609,14.121,16.863,0,16.863-14.121,33.723-14.121s16.859,14.121,33.725,14.121,16.863-14.121,33.727-14.121c16.785,0,16.857,13.993,33.5,14.116v0a1.057,1.057,0,0,0,.117,0,.9.9,0,0,0,.109,0c16.826,0,16.865-14.057,33.613-14.121,16.75.064,16.787,14.121,33.609,14.121,16.863,0,16.863-14.121,33.725-14.121s16.863,14.121,33.727,14.121,16.861-14.121,33.725-14.121c16.316,0,16.848,13.216,32.141,14.074v.047c.268,0,.529,0,.795-.013.258.008.525.013.793.013,16.592,0,16.859-13.67,32.934-14.108,16.07.437,16.334,14.108,32.928,14.108,16.861,0,16.861-14.121,33.721-14.121s16.861,14.121,33.725,14.121,16.861-14.121,33.727-14.121c16.783,0,16.861,13.993,33.5,14.116v0a.987.987,0,0,0,.113,0,.97.97,0,0,0,.111,0c16.828,0,16.869-14.053,33.617-14.121,16.74.068,16.783,14.121,33.6,14.121,16.867,0,16.867-14.121,33.725-14.121s16.865,14.121,33.729,14.121,16.859-14.121,33.719-14.121c16.793,0,16.867,13.993,33.512,14.116v0a.953.953,0,0,0,.109,0,.97.97,0,0,0,.111,0c16.826,0,16.867-14.057,33.615-14.121,16.742.064,16.781,14.121,33.613,14.121,16.859,0,16.859-14.121,33.723-14.121s16.855,14.121,33.721,14.121,16.861-14.121,33.725-14.121,16.871,14.121,33.727,14.121,16.869-14.121,33.732-14.121h0" transform="translate(-15279.002 -504.886)" fill="none" stroke="#e4dfff" stroke-linecap="round" stroke-width="6"/>
</svg>
