<svg xmlns="http://www.w3.org/2000/svg" width="44" height="24" viewBox="0 0 44 24">
  <path id="arrow-right" d="M27.732,30.909l9.841-10.1a2.292,2.292,0,0,0,0-3.146,2.152,2.152,0,0,0-3.066,0l-6.121,6.312V-10.27a2.215,2.215,0,0,0-2.173-2.23,2.215,2.215,0,0,0-2.173,2.23V23.976l-6.15-6.341a2.152,2.152,0,0,0-3.066,0,2.255,2.255,0,0,0-.626,1.558,2.2,2.2,0,0,0,.626,1.558l9.841,10.1a2.09,2.09,0,0,0,1.519.642,1.914,1.914,0,0,0,1.548-.582Z" transform="translate(12.5 38.199) rotate(-90)" fill="#6f69f2"/>
</svg>
