<svg xmlns="http://www.w3.org/2000/svg" width="37.459" height="37.46" viewBox="0 0 37.459 37.46">
  <g id="calendar" transform="translate(-4.168 -4.168)">
    <path id="Path_2015" data-name="Path 2015" d="M34.817,7.744V5.87a1.7,1.7,0,0,0-3.407,0v1.7H24.6V5.87a1.7,1.7,0,0,0-3.407,0v1.7h-6.81V5.87a1.7,1.7,0,0,0-3.407,0V7.744a8.511,8.511,0,0,0-6.81,8.343V33.115a8.513,8.513,0,0,0,8.513,8.513H33.114a8.513,8.513,0,0,0,8.513-8.513V16.086a8.511,8.511,0,0,0-6.81-8.343Zm3.4,25.371a5.109,5.109,0,0,1-5.108,5.108H12.681a5.109,5.109,0,0,1-5.108-5.108V16.086a5.111,5.111,0,0,1,3.4-4.8v1.4a1.7,1.7,0,1,0,3.407,0v-1.7H21.2l0,1.7a1.7,1.7,0,1,0,3.407,0v-1.7h6.812l0,1.7a1.7,1.7,0,1,0,3.407,0v-1.4a5.111,5.111,0,0,1,3.4,4.8Z" transform="translate(0 0)" fill="#3d3d4d"/>
    <path id="Path_2016" data-name="Path 2016" d="M45.711,42.329,38.73,49.141l-2.691-2.572A1.71,1.71,0,1,0,33.638,49l3.882,3.814a1.7,1.7,0,0,0,2.4,0l8.191-8.054a1.71,1.71,0,0,0-2.4-2.434Z" transform="translate(-17.126 -22.275)" fill="#fff"/>
  </g>
</svg>
