<svg xmlns="http://www.w3.org/2000/svg" width="19.618" height="19.618" viewBox="0 0 19.618 19.618">
  <path id="close" d="M10.68,14.088a.227.227,0,0,1-.24-.24V9.936a.646.646,0,0,0-.72-.72H7.032a.657.657,0,0,0-.72.72v3.912a.215.215,0,0,1-.24.24H2.16a.646.646,0,0,0-.72.72V17.5a.657.657,0,0,0,.72.72H6.072c.168,0,.24.072.24.24v3.912a.646.646,0,0,0,.72.72H9.72a.636.636,0,0,0,.72-.72V18.456a.215.215,0,0,1,.24-.24h3.912a.646.646,0,0,0,.72-.72V14.808a.636.636,0,0,0-.72-.72Z" transform="translate(15.307 -7.535) rotate(45)" fill="#fff"/>
</svg>
