<svg xmlns="http://www.w3.org/2000/svg" width="52" height="52.047" viewBox="0 0 52 52.047">
  <g id="home" transform="translate(-768.5 -8951.386)">
    <path id="Path_1991" data-name="Path 1991" d="M34.7,69.014h4.9V57.581a4.9,4.9,0,0,1,9.8,0V69.014H69V38.1a5.106,5.106,0,0,0-2.287-4.268L47.405,20.962a5.236,5.236,0,0,0-5.812,0L22.286,33.834A5.106,5.106,0,0,0,20,38.1V69.014Z" transform="translate(750.001 8932.919)" fill="none" stroke="#fff" stroke-width="3"/>
    <path id="Path_1992" data-name="Path 1992" d="M51.875,41.457a2.418,2.418,0,0,1-4.836,0,2.418,2.418,0,0,1,4.836,0" transform="translate(745.043 8929.442)" fill="none" stroke="#fff" stroke-width="3"/>
  </g>
</svg>
