<svg xmlns="http://www.w3.org/2000/svg" width="48" height="48" viewBox="0 0 48 48"><path d="M28 13.3a19.89 19.89 0 0 1 1.86-1.46 5.34 5.34 0 0 1 6.07.32 6.51 6.51 0 0 1 .82 9.56 6.27 6.27 0 0 1-4 1.76c-2.49.2-5 .35-7.47.52-1.59.11-3.19.26-4.79.3a7.4 7.4 0 0 1-5.67-2.42 9.11 9.11 0 0 1-.65-11.67A7.72 7.72 0 0 1 27.51 12C27.7 12.45 27.83 12.91 28 13.3zM17.72 15.88c0 .36.06.73.13 1.09a4.42 4.42 0 0 0 .22.79 3.63 3.63 0 0 0 6.27 1.33A5.22 5.22 0 0 0 24.93 13a3.62 3.62 0 0 0-6.16-.31A5.19 5.19 0 0 0 17.72 15.88zm18.42 1.24A3.2 3.2 0 0 0 35.39 15 2.25 2.25 0 0 0 32 14.69a3.55 3.55 0 0 0-.42 4.7 2.27 2.27 0 0 0 3.34.36A3.25 3.25 0 0 0 36.14 17.12zM23 38c.61-.82 1.15-1.61 1.75-2.36a2.11 2.11 0 0 0 .48-1.46c0-.59 0-1.19 0-1.78a2 2 0 0 0-.64-1.56c-1.23-1.24-2.45-2.5-3.69-3.74a.47.47 0 0 1-.11-.65 1.77 1.77 0 0 1 1.55-.93c2.83-.25 5.67-.49 8.5-.78a22.73 22.73 0 0 1 4.29.2c.33 0 .66.07 1 .12a1.45 1.45 0 0 1 1.31 1.5c0 .38 0 .76 0 1.13s-.15.57-.52.63L32 29.24l-.85.16a1.19 1.19 0 0 0-1 1.1c0 1.3-.05 2.6 0 3.89a.75.75 0 0 0 .92.8 19.64 19.64 0 0 0 2.26-.45c.11 0 .24-.21.26-.34a6 6 0 0 0 0-.86l-.94.18-.81.2c-.27.06-.44-.05-.44-.35 0-.79 0-1.59 0-2.38a.48.48 0 0 1 .45-.52c1.74-.34 3.48-.67 5.22-1 .29-.06.36.05.36.31 0 1.73 0 3.45 0 5.18A2 2 0 0 1 35.75 37c-2.84.66-5.68 1.32-8.53 1.95a4.17 4.17 0 0 1-2.49-.22z"/><path d="M24,32.78a.4.4,0,0,0,0-.11,2.9,2.9,0,0,0-.4-.87c-1.3-1.32-2.62-2.62-4-3.89a2.81,2.81,0,0,0-1.29-.72c-2.1-.43-4.2-.82-6.32-1.13a2,2,0,0,0-2.39,2c0,1.63-.08,6.24-.08,7.82A3.18,3.18,0,0,0,11.42,39a27,27,0,0,0,6.08,1.89A2.22,2.22,0,0,0,19.88,40c1-1.39,2.08-2.7,3.11-4.06C24.22,34.27,24,35,24,32.78Zm-6.26,4.1a1.22,1.22,0,0,1-1.55,1.18L12.35,37a1.07,1.07,0,0,1-.78-1V29.55a.91.91,0,0,1,1.11-.89l4.13.95a1.23,1.23,0,0,1,1,1.19Z"/></svg>